<?xml version="1.0" encoding="UTF-8"?>
<svg id="Layer_2" data-name="Layer 2" xmlns="http://www.w3.org/2000/svg" viewBox="0 0 490.49 115.54">
  <defs>
    <style>
      .cls-1 {
        fill: #fff;
        font-size: 84.77px;
      }

      .cls-2 {
        fill: #6c6c6c;
      }

      .cls-3 {
        fill: #eaeaea;
      }

      .cls-4 {
        fill: #939393;
      }

      .cls-5 {
        fill: #5f5f5f;
      }

      .cls-6 {
        fill: #8e8e8e;
      }

      .cls-7 {
        fill: #a1a1a1;
      }

      .cls-8 {
        fill: #868686;
      }

      .cls-9 {
        fill: #c1c1c1;
      }

      .cls-10 {
        fill: #5a5a5a;
      }

      .cls-11 {
        fill: #919191;
      }

      .cls-12 {
        fill: #b4b4b4;
      }

      .cls-13 {
        fill: #9d9d9d;
      }

      .cls-14 {
        fill: #c3c3c3;
      }

      .cls-15 {
        fill: #c4c4c4;
      }

      .cls-16 {
        fill: #bebebe;
      }

      .cls-17 {
        fill: #717171;
      }

      .cls-18 {
        fill: #9b9b9b;
      }

      .cls-19 {
        fill: #6f6f6f;
      }

      .cls-20 {
        font-family: ProximaNova-Light, 'Proxima Nova';
        font-weight: 300;
      }

      .cls-20, .cls-21 {
        letter-spacing: .04em;
      }

      .cls-22 {
        fill: #646464;
      }

      .cls-23 {
        fill: #666;
      }

      .cls-24 {
        fill: #bcbcbc;
      }

      .cls-25 {
        fill: #9f9f9f;
      }

      .cls-26 {
        fill: #bababa;
      }

      .cls-27 {
        fill: #bbb;
      }

      .cls-28 {
        fill: silver;
      }

      .cls-29 {
        fill: #878787;
      }

      .cls-30 {
        fill: #b8b8b8;
      }

      .cls-31 {
        fill: #959595;
      }

      .cls-32 {
        fill: #a3a3a3;
      }

      .cls-33 {
        fill: #747474;
      }

      .cls-34 {
        fill: #a2a2a2;
      }

      .cls-35 {
        letter-spacing: .04em;
      }

      .cls-35, .cls-21, .cls-36 {
        font-family: ProximaNova-Bold, 'Proxima Nova';
        font-weight: 700;
      }

      .cls-37 {
        fill: #bfbfbf;
      }

      .cls-38 {
        fill: #8d8d8d;
      }

      .cls-39 {
        fill: #8c8c8c;
      }

      .cls-36 {
        letter-spacing: .03em;
      }

      .cls-40 {
        fill: #9e9e9e;
      }

      .cls-41 {
        fill: #a4a4a4;
      }

      .cls-42 {
        fill: #b6b6b6;
      }

      .cls-43 {
        fill: #ececec;
      }
    </style>
  </defs>
  <g id="Layer_1-2" data-name="Layer 1">
    <text class="cls-1" transform="translate(106.66 84.34)"><tspan class="cls-21" x="0" y="0">B</tspan><tspan class="cls-36" x="59.59" y="0">A</tspan><tspan class="cls-35" x="120.37" y="0">SE</tspan><tspan class="cls-20" x="227.44" y="0">LAB</tspan></text>
    <g>
      <path class="cls-10" d="M3.3,35.87c-1.03-.45-2.02-.98-2.96-1.59l-.02-.21c-.09-.02-.16-.03-.16-.05-.04-3.83-.05-7.89.16-11.64l.3-.17c.05,3.92.11,7.84.17,11.78l.35-.11c1.01.56,2.04,1.09,3.09,1.6l.02.39c.78.17,1.47.7.31.94v.41c-1.08.57-2.15,1.14-3.22,1.71l-.39-.08.27.42c-.33,3.74-.3,7.61-.11,11.36.86.62,1.84,1.2,2.95,1.75l.03.27.99.51c0,.26-.22.36-.68.28-.64.94-2.33,1.73-3.45,1.88.1.37.18,1.22-.16,1.49l.21.05c.01,3.42.03,6.84.06,10.27l-.27.19c.09-.06.2-.11.31-.06.16.06,1.98,1.09,2.15,1.21.09.06.07.22.06.34.26.13,1.77.94,1.77,1.04,0,.07-.02.14-.05.22v.39c-1.2.58-2.39,1.17-3.57,1.77l-.35-.12c-.15.2-.23.4.08.5-.22,3.86-.22,7.72,0,11.58,2.86,1.75,6.02,3.2,9.08,4.53l.1.33.11-.33c1.08-.42,2.12-.94,3.12-1.56l.38.16c.29-.74.77-.16.66.53-.1.95-.06,1.87.12,2.76l.37-.07c2.74,1.59,5.54,3.03,8.42,4.32l.14.3c.34.28.6.37.8-.08.8-.35,1.58-.74,2.33-1.19l.32.18c.7.05.54.28.78.78.22.36.29.85.21,1.49,0,.52.24,1.03.69,1.31,2.75,1.69,6.14,3.38,9.14,4.42l.12-.39,2.33-1,.38.14c.66-.46.98-.46.94,0l.21.25c.04.88.09,1.74.14,2.58,2.86,1.55,5.78,3.02,8.7,4.47l.36.39c.17.04.33.09.47.16.53.24-.28.68-.63.31-1.85-.83-3.66-1.69-5.47-2.61-.53-.27-4.41-2.08-4.41-2.33v-2.74c-1.12.16-2.72,1.66-3.8,1.54-3.4-1.47-6.59-3.44-10-4.83v-3.45c-1.04.22-2.39,1.58-3.46,1.35l-9.22-4.59c-.16-.08-.81-.5-.81-.61v-2.59c-.98.14-2.8,1.65-3.64,1.54-.68-.09-1.29-.74-1.99-.85L.2,84.76l-.16-.38v-12.18s.98-.73.98-.73l3.06-1.64c-.07-.23-3.15-1.54-3.63-1.86-.2-.13-.43-.2-.45-.49l.03-12.21c.33-.61,3.5-1.74,3.58-2.07.06-.27-.22-.3-.38-.4-.63-.37-3.03-1.27-3.19-1.83L0,38.77l.16-.31c.5-.27,3.92-1.82,3.91-2.04-.3-.16-.53-.36-.78-.55Z"/>
      <path class="cls-22" d="M53.95,4.5c.76.29,1.02.71.78,1.25-.13-.11-.37-.2-.47-.31-3.17-1.49-6.32-3.04-9.46-4.65l-8.88,4.52-.64-.02c.25.28.23.31-.16.31-.38.63-.57.89,0,1.41l-.26.22-1.92-.84-8.96,4.57-.31-.19c-.1.18-.17.4.05.51l-.2.12c-.51-.1-.22.21-.32.51-.06.2-.5,0-.16.43-.39.16-.9.06-1.51-.31-2.57,1.37-5.19,2.66-7.83,3.9-.15.07-.31.1-.48.13s-.35.04-.53.04c-.45.35-.49.48-.33,1.01l-.29.24s-.3.16-.31.31c-.04.13-.12.21-.25.23l-1.18-.49L1.41,21.95l-.31-.19c-.19-.22-.3-.2-.16,0,.14.04.13.1,0,.16l.17.28c-.23,3.75-.26,7.52-.1,11.33l-.23.47c-.48-.54.04-9.93-.16-11.37l-.31-.23v11.68c.9.81,2.02,1.1,2.98,1.8-.49-.04-3.25-1.47-3.3-1.68l.08-12.44c3.14-1.9,6.57-3.36,9.83-5.07.55-.26,1.01.06,1.46.36.38-.21.1-.7.33-.95,3-1.47,5.96-3.03,8.97-4.47.24-.11.48-.39.66-.45.55-.2,1.27.59,1.48.55.43-.09-.1-.88.28-1.21l8.6-4.34c.5-.06,1.02-.54,1.49-.56.58-.02.87.61,1.47.47l.27-1.27L44.53.02c.52-.11,1.28.36,1.79.59,2.51,1.13,5.17,2.62,7.63,3.9Z"/>
      <path class="cls-23" d="M55.83,7.64c.63-.34,2.42-1.51,3.02-1.39,1.77,1.05,3.76,1.73,5.46,2.86l4.38,1.97v3.45c1.06.03,2.58-1.57,3.61-1.35l9.6,4.79c.09.07.27.32.27.4v2.74c1.3-.46,2.45-1.42,3.81-1.69l8.94,4.36c.15.31.33.33.58.47.78.52.12,1.62-.31.31-.32-.06-.63-.13-.94-.22s-.61-.18-.89-.32c-2.49-1.24-4.98-2.51-7.43-3.82-1.22.63-2.45,1.24-3.69,1.83l-.23-.29c.52-.69-.28-.35-.32-.56-.12-.55.24-1.43-.15-1.95-.49-.08-.35-.39,0-.63h-.4c-3.02-1.57-6.07-3.13-9.13-4.66l-3.21,1.59-.59-.06c.12-.23.37-.35.31-.63-.15.08-.31.1-.47.16l-.26-.3c.16-.89.2-1.81.01-2.7l.24-.3c-3.12-1.48-6.23-3.02-9.33-4.63-.47.24-1.32.59-1.99.86l-.44-.15c-.35.09-.51.04-.47-.16Z"/>
      <path class="cls-2" d="M95.03,40.89c.17.09.92.3.95.41-.24,1.55.32,12.31-.11,12.78-.26.28-1.53.56-1.71.92-.13.25-.12,1.33-.09,1.65.05.41,1.57.85,1.9,1.28v12.66c-.05.2-.38.04-.47.09.01,0,.17-.3.16-.31h-.47s-.21-.27-.21-.27c.3-3.74.31-7.65-.04-11.37l.25-.28c-.34-.24-.81-.53-1.41-.89v-.36c.19-.15-.07-.3-.22-.38-1.84-.5-1.97-1.22-.08-1.84.27-.15.81-.46,1.04-.65,0,0-.04-.06-.11-.12-.24-.28-.05-.53.56-.76.07-3.5.12-7.03.16-10.59-.15-.49-.13-.89.07-1.19-.42.13-.59-.13-.31-.47l.16-.31Z"/>
      <path class="cls-22" d="M55.83,7.64l.47.16c.07.52-1.2.96-1.57.63-.25-.23,0-.41,0-.47.14.38.35.06.47,0,.2-.1.43-.21.63-.31Z"/>
      <path class="cls-43" d="M35.13,7.01c2.48,1.18,4.9,2.56,7.37,3.76.13.45.03.69-.32.7-2.3,1.19-4.62,2.38-6.94,3.54-.48.24-1,.35-1.52.47-.4.4-.83.49-1.29.25-2.6-1.29-5.19-2.62-7.76-3.97-.92-.12-1.25-.45-.99-.99l9.21-4.68c.28-.07,1.81.71,2.23.91Z"/>
      <path class="cls-43" d="M81.55,18.62l-.41.4c-2.82,1.29-5.55,2.66-8.19,4.13l-.34-.14c-.44.35-.67.53-1.21.24-2.87-1.33-5.79-2.75-8.56-4.32-.36-.21-.6-.34-.11-.62,1.82-.95,3.65-1.92,5.49-2.82,1.21-.59,2.46-1.1,3.6-1.82l.36-.03c1.04.88,9.2,4.36,9.37,4.99Z"/>
      <path class="cls-43" d="M23.05,12.35c2.53,1.22,4.95,2.64,7.53,3.76.48.28.7.88-.05,1.12-2.67,1.29-5.33,2.56-7.99,3.83l-.59.06-.39.33c-2.59-.92-5.09-2.14-7.5-3.66-1.77-.5-2.22-1.06-1.36-1.69,2.86-1.54,5.91-2.77,8.75-4.36.28-.07,1.23.42,1.6.6Z"/>
      <path class="cls-43" d="M56.3,7.8c.77-.36,1.65-.62,2.4-1.07l9.26,4.67c.16.07.07.24.1.32v.33c-2.87,1.43-5.75,2.85-8.63,4.26l-.31-.2c-.47.4-.71.55-1.3.24-2.66-1.49-5.4-2.88-8.22-4.19-.53-.24-.49-.6.11-1.07,1.43-.68,2.89-1.33,4.32-2.03.32-.16.64-.61.7-.63.39-.19,1.09-.4,1.57-.63Z"/>
      <path class="cls-43" d="M69.79,23.95c.14.41.11.65-.32.7-2.79,1.54-5.67,2.88-8.62,4.01-.45.49-1.05.42-1.78-.2-2.62-1.26-5.25-2.55-7.83-3.88-.39-.2-.59-.35-.11-.62,2.9-1.74,6.22-3.04,9.17-4.7l9.49,4.7Z"/>
      <path class="cls-29" d="M29.48,33.83l.16.31c-.5-.1-.59.32-.79.47s-.45.29-.63.47c-.09,3.9-.07,7.84.06,11.83,2.84,1.88,6.1,3.36,9.27,4.64l.24.31c.25-.02,2.56-1.19,2.9-1.41.23-.15.59-.31.68-.58l.02-8.9c.05-.2.38-.04.48-.09l.15.08c-.04.08-.13.16-.15.24.27.41.21.89.05,1.47,0,2.52,0,5.03,0,7.52l-.21.1c-.13.26-.4.33-.63.47-1.11.69-2.3,1.24-3.51,1.73l-4.81-2.42-.54-.1c-1.31.56-2.65,1.15-3.84,1.9-.32.17-.34.3-.08.39-.2,3.77-.16,7.63-.11,11.42.77.74,1.71,1.32,2.83,1.75l.02.25.16.31c-.12.03-.42-.04-.47,0-.64-.06-2.56-1.47-2.98-1.41-.37.14-.53-.16-.48-.91.06-.81.04-1.57-.08-2.3-.9.55-1.83,1.05-2.79,1.49-1.99-.8-3.93-1.74-5.83-2.81l-3.04,1.43-.32-.19c-.15.19-.31.3-.47.31-.27,1-.58.42-.47-.31v-.36s2.74-1.5,2.74-1.5c-.71-.41-1.47-.83-2.26-1.26l.14-.33c-1.33-.68-.72-1.89.31-.31l.56-.12c2.57,1.33,5.14,2.63,7.73,3.91l.33.45c.34.17.48.09.63-.28.89-.37,1.76-.77,2.59-1.27l.11-8.12c.03-.53.52-.84.93-1.09l2.66-1.32-2.63-1.49-.05-.38c-.69.39-1.16-.43-.47-.71l-.31-.18c-.11-.46-.13-2.29.31-2.49-1.12.51-2.25,1-3.39,1.48-1.77-.88-3.55-1.72-5.34-2.52-1.33.56-2.65,1.14-3.94,1.72l-.19-.13c-.18.91-.39,1.12-.63.63-.91-.34-.14-1.24.55-1.51l2.88-1.38c-.21-.11-.3-.3-.29-.57-.61-.51-.28-.51.31-.31,1.97.43,4.09,1.38,5.65,2.67.4.19.41.58,1.16.47.25-.04,2.92-1.41,3-1.56l.11-8.36c.17-.55,1.55-.97,2.01-1.21Z"/>
      <path class="cls-38" d="M68.06,11.72c.29.91.23,2.36,0,3.29-1.93.65-4.07,2.18-5.95,3.07-.43.25-.33.74-.32,1.17-.63.04-.97-.54-1.63-.47-.49.05-1.07.57-1.5.78l-.3-.19c-.11-.91-.33-3.06.77-3.26l8.94-4.39Z"/>
      <g>
        <path class="cls-38" d="M83.74,30.38c.19.51.28,1.04.29,1.59.02,2.39.04,4.78,0,7.17,0,.26-.05.53-.1.8s-.12.53-.2.8c0,.26-.06,1.51,0,1.57-.15.27-.3.33-.56.46-2.92,1.52-5.96,2.82-8.85,4.4l-.31-.15.08-11.58c-.01-.23.22-.4.7-.5v-.39c2.75-1.58,5.83-3.01,8.78-4.31l.16.16Z"/>
        <path class="cls-43" d="M83.59,30.22c.07.31-.16.37-.38.47-2.1,1.03-4.28,1.99-6.34,3.07-.56.29-1.61.81-2.06,1.16-.56.42-.79.51-1.5.18-2.7-1.42-5.41-2.81-8.14-4.15-.24-.2-.47-.43-.23-.73,3.07-1.53,6.11-3.15,9.17-4.7l9.49,4.7Z"/>
        <path class="cls-37" d="M64.92,30.22l.39.47c2.73.89,5.86,3.44,8.47,4.25.41.13.62.08,1.02,0-.13.1-.27.2-.38.32l-.09,11.92c-.6.09-1.1-.43-1.57-.74l-.03-10.84-7.86-3.83c-.16-.04-.19-.18-.27-.28l-.08-.43c-.41-.14-.29-.5.08-.67.09-.04.21-.11.31-.16Z"/>
      </g>
      <path class="cls-38" d="M54.26,5.44c.17.12.41,2.8-.23,2.98l-5.41,2.74c-.29.31-.13.78-.16,1.17-.57,0-.86-.47-1.47-.46-.67.02-1.53.62-2.13.93-.48-.32-.47-2.49-.07-2.82l.54-.16c.15-.16.29-.32.46-.47s.32-.28.51-.38c2.17-1.15,4.46-2.36,6.71-3.33.19-.08.4-.12.61-.16s.43-.05.65-.06Z"/>
      <path class="cls-39" d="M42.5,10.78c.13.49.32,1.58.31,2.12,0,.28-.16,1.02-.38,1.19l-5.33,2.67c-.38.3-.35.82-.25,1.24-.16.14-.94-.63-1.33-.62-.21,0-1.89.9-2.27,1.09-.36-.18-.45-1.77-.33-2.18.16-.55.19-.61.8-.8,2.74-1.51,5.55-2.89,8.34-4.29.22-.11.53-.02.44-.41Z"/>
      <path class="cls-38" d="M30.58,16.11c.11.05.27.02.4.14.35.31.41,2.96-.08,3.4-.8.6-5.38,2.38-5.63,3-.06.15-.02.35-.03.52-1.09-.78-2.56.25-3.61.78-.07-.01-.14-.03-.2-.07-.16-.11-.4-3,.52-2.75,2.96-1.49,5.91-3.1,8.94-4.39l-.31-.63Z"/>
      <path class="cls-39" d="M64.14,30.07c.04.9-.28,1.13-1.1.63-1.32.1-1.71.59-2.82,1.1-.02-.84-.02-1.71,0-2.64,0-.25.22-.42.62-.5,2.81-1.48,5.66-2.87,8.5-4.29.22-.11.53-.02.44-.41.33.28.14,2.57.08,3.14-1.59,1.01-3.68,1.62-5.24,2.6-.2.12-.32.2-.49.37Z"/>
      <path class="cls-38" d="M81.55,18.62c.04.15,0,.44,0,.63.02.5.1,1.99-.15,2.28-.88.68-5.53,2.39-5.77,3.17-.06.19,0,.64-.03.67-.16.17-1.1-.4-1.61-.29-.36.08-1.68.84-2.15,1.07-.06-.98,0-1.94.16-2.89l.63-.25c.97-.73,3.36-1.82,4.57-2.41,1.42-.7,2.91-1.36,4.37-1.98Z"/>
      <g>
        <path class="cls-38" d="M83.74,59.08c-.44.44-.74.66-1.3.97-2.6,1.44-5.45,2.56-8.1,3.89l-.31-.14v-11.13c0-.45.22-.66.63-.8l.25-.39c2.82-1.6,5.71-3.04,8.69-4.32.03-.02.11.02.16,0l.31.15v10.47c-.39.1-.35.6,0,.75-.14.16-.25.34-.31.56Z"/>
        <path class="cls-43" d="M83.59,47.16s.06.21-.12.31c-2.82,1.56-6.01,2.76-8.82,4.4l-.4.37c-.59-.12-4.53-1.83-4.39-2.25l.4-.32c.34-.18,2.41-1.17,2.48-1.29.14-.25-.03-.9.03-1.22.14-.16,1.25.83,1.6.6l5.08-2.6,4.13,2Z"/>
        <path class="cls-16" d="M70.26,49.67c-.28.34-.03.33.21.5,1.09.75,2.45,1.06,3.55,1.79l.63-.09-.32.7v11.38c-.37.35-1.47-.4-1.56-.87v-10.47s-3.92-2-3.92-2c-.09-.41.08-.24.22-.33.38-.23.8-.41,1.19-.61Z"/>
        <path class="cls-39" d="M84.06,46.85c.07.03.29-.1.32.09v10.88c-.28.25-.28.46,0,.63-.04.28.06.69,0,.94l-.13-.1-.03-.68c-.04-.1-.32.33-.47.47v-11.92c.14-.07.4.19.31-.31Z"/>
      </g>
      <path class="cls-6" d="M85.47,41.52c-.7.05-1.44-.01-1.72-.78-.06-3.45.04-6.9,0-10.35.67.41.55-.03.16-.47.08.04.3-.02.4.15l.08,10.59c.05.68.84.37,1.09.87Z"/>
      <g>
        <path class="cls-38" d="M83.74,63.79l.19.47c.14,3.29.18,6.59.14,9.9-.2.27-.32.58-.33.92-.02.4.12.78-.35.98l-9.06,4.5-.31-.15c.05-3.91.1-7.83.15-11.74l.32-.18c.07-.45.85-.91,1.28-1.12,2.57-1.28,5.27-2.57,7.81-3.74.06.04.14.07.16.16Z"/>
        <path class="cls-3" d="M83.59,63.63c.03.38-.24.4-.49.53-2.37,1.2-4.79,2.32-7.18,3.49-.4.2-1.02.79-1.43.85-.03.08-.07.15-.12.21-.28.31-3.17-1.25-3.66-1.56l-.13-.38c-.23-.03-.18-.19.16-.47.31-.15,1.93-.84,2.01-.97.14-.25-.03-.9.03-1.22l1.46.59,5.53-2.78.69.08c.86.76,2.25,1.02,3.14,1.64Z"/>
        <path class="cls-16" d="M74.49,68.49l-.16,12.08c-.48.09-1.48-.41-1.57-.86l-.03-10.48c-.09-.31-1.88-1.12-2.32-1.36-.74-.4-.59-1.02.16-1.1.87.26,3.15,1.84,3.92,1.73Z"/>
        <path class="cls-6" d="M84.37,74.29c-.78-.16-.27.38-.63.78.21-3.7-.15-7.58,0-11.29h.47s-.47-.63-.47-.63c.31.17.66.11.63.7v10.44Z"/>
      </g>
      <path class="cls-43" d="M35.29,5.29L44.77.43l9.3,4.65c.22.04.16.34.19.37-3.04,1.32-5.98,2.89-8.94,4.39h-1.02s-9.02-4.55-9.02-4.55Z"/>
      <g>
        <path class="cls-19" d="M95.5,70.69c-.36.2-.94.7-1.33.94-.11.23-.14,2.03-.05,2.17.12.2,1.87.62,1.85,1.2v12.08s-.47.54-.47.54c.29-.33.37-.65.31-1.1-.46.41-.19.49-.78.78.12-3.21.2-6.6.07-9.89-.02-.59-.08-1.17-.17-1.75l.26-.28c-.5-.41-1.29-.86-2.03-1.21v-.36c.97.05.81-.25-.01-.47.06-.38.08-.77-.05-1.13l.21-.28c.31-.2.6-.54.74-.63.39-.24,1.17-.43,1.45-.62Z"/>
        <path class="cls-3" d="M93.15,73.82c.27.14,1.81.94,1.88,1.02.22.23.11.37.15.55v.31c-2.97,1.45-5.95,2.88-8.95,4.28l-.31-.2-.42.18-2.96-1.49c-1.12-.3-1.41-.6-.85-.89.03-.02.06-.16.17-.22.4-.21,2.24-.91,2.42-1.18s.03-.79.07-1.1c.63-.21,1.08.68,1.57.57l5.29-2.73c.59.4,1.31.6,1.93.91Z"/>
        <path class="cls-37" d="M81.7,77.59c-.33.51-.04.22.24.31,1.27.41,2.69,1.46,4,1.89l.31.15c.01,3.88,0,7.76-.02,11.64l-.29.29c-.22.07-.49-.15-.63-.16-.66-.07-1.08-.29-1.25-.66v-10.14c.34-.16.23-.43-.32-.8-1.07-.66-2.28-1.04-3.29-1.8.31-.42.84-.49,1.25-.71Z"/>
        <path class="cls-38" d="M95.19,75.39c.44,1.61.31,9.07.17,11.07-.03.36-.07.58-.32.85-3.04,1.5-6.06,3.05-9.1,4.55v-12.08l9.25-4.39Z"/>
      </g>
      <g>
        <path class="cls-3" d="M83.27,80.41c.57.41.28.73-.86.96l-.55.29-.49.54c-2.21,1.15-4.42,2.24-6.64,3.27l-.39-.05c0,.14-.08.31-.2.29-.28-.05-3.59-1.62-3.9-1.84l-.13-.34c-.39-.2.15-.56.47-.63.32-.17,2.06-.99,2.12-1.09.18-.26.04-.78.07-1.1.65-.16.96.61,1.57.41l5.13-2.58c.23-.04,3.36,1.59,3.8,1.86Z"/>
        <path class="cls-37" d="M74.33,85.43l.31.15v11.48l-.31.29c-.13.05-.24.23-.47.16-.42-.21-.9-.33-1.1-.86l-.03-10.48c-.15-.47-2.18-1.14-2.64-1.68-.81-.17-.81-1.03,0-.94.82.04,3.78,1.96,4.23,1.88Z"/>
        <path class="cls-39" d="M85.31,91.7c-.56-.04-1.12.15-1.57-.31-.14-.41-.28-.83-.29-1.26-.03-2.34-.03-4.7,0-7.04,0-.44.15-.86.29-1.26-.34-.5-.34-.87,0-1.1.1.11.48.27.47.08l-.47-.7c.28.17.67.1.63.7v10.2c.03.51.68.32.93.7Z"/>
        <path class="cls-42" d="M83.74,80.72c0,.37,0,.73,0,1.1-.25.43-.43.11-.61-.25-.56.3-.98.33-1.27.1.23-.59,1.94-.4,1.41-1.25.13.08.4-.01.47.31Z"/>
        <path class="cls-38" d="M81.86,81.66c.2-.08,1.4-.49,1.49-.48.14.02.07.63.4.63.08,3.12.08,6.45,0,9.57-.01.41.12,1.25-.16,1.49-3.1,1.46-6.11,3.13-9.25,4.47v-11.92c2.53-1.13,4.95-2.76,7.53-3.76Z"/>
      </g>
      <g>
        <path class="cls-38" d="M95.19,58.45c.04.22.15.38.16.69.16,3.02.24,7.56,0,10.53-.02.24,0,.49-.16.7l-9.22,4.68c-.27.16-.38-.08-.5-.13l.15-.31c.03-3.9.05-7.78.08-11.65l.4-.12c.1-.14.21-.28.33-.4s.24-.24.38-.31c2.39-1.27,4.87-2.57,7.37-3.6.15-.06.31-.08.49-.09s.35,0,.53.01Z"/>
        <path class="cls-43" d="M93.78,57.2c.43.23.93.66,1.43.86l.1.18c.02.1-.13.2-.13.21-3.13,1.23-6.1,2.87-9.1,4.39-.04.08-.09.15-.15.21-.29.28-3.15-1.26-3.65-1.57l-.12-.37c-.4-.13-.16-.34.16-.47.39-.2,1.96-.93,2.04-1.25l-.08-.69c-.21-.11-.17-.19.08-.25l.29-.22c.41.23.84.41,1.29.52,1.9-.98,3.82-1.93,5.76-2.83.61.38,1.23.64,1.92.92.14.06.18.2.16.35Z"/>
        <path class="cls-37" d="M82.17,61.12c1.06.27,3.06,1.82,3.92,1.73-.18.26-.15.56-.16.85-.12,3.52.28,7.38,0,10.84-.04.48.08.4-.47.38-.39-.16-.7-.47-1.1-.63-.13,0-.23-.04-.29-.15v-10.28c.3-.14.19-.38-.33-.7-.56-.31-1.23-.51-1.72-.94-.77-.27-1.15-.93-.22-1.28.22-.08.33-.1.38.18Z"/>
        <path class="cls-5" d="M94.41,54.22c.2-.01.89-.38.94,0-.73.02-1.22.68-1.74,1.01-.22.14-1.16.32-1.24.64-.11.44,1.16.63,1.37.75.04.03.65.75.05.58-.26-.14-.75-.26-1.08-.41-.39-.18-.67-.64-1.18-.53l-5.55,2.8c-.6-.14-.96-.44-1.6-.6-.15-.04-.42.09-.47-.08-.15-.51.01-.61.47-.55.53.07,1.01.66,1.57.63l.17-.43c2.66-1.33,5.33-2.66,7.99-4l.31.2Z"/>
      </g>
      <g>
        <path class="cls-3" d="M94.88,41.2s.28.4.31.47l.02.34c-2.83,1.46-5.66,2.93-8.49,4.4l-.31-.19c-.22.08-.37.21-.47.39-.38.18-4.04-1.72-4.33-2.02-.27-.28-.25-.33.09-.56.84-.43,1.53-.76,2.35-1.25.05-.03.27.1.32-.1.07-.31-.06-.81,0-1.16.13-.15,1.27.82,1.63.63l5.05-2.51c.59-.09,2.73,1.11,3.38,1.47.16.09.4.06.45.09Z"/>
        <path class="cls-28" d="M81.7,44.02c-.07.34.18.34.39.47.73.42,1.7.98,2.45,1.32.61.27,1.21.65,1.86.41.21.2.11.46-.11.42,0,3.75-.06,7.49-.14,11.22l-.22.59c-.2.5-1.48-.17-1.57-.63l-.31-.14v-10.45c.2-.11.2-.24,0-.38-1.24-.65-2.46-1.38-3.76-1.88-.08-.41.07-.24.22-.33.35-.2.81-.42,1.19-.61Z"/>
        <path class="cls-38" d="M94.41,54.22l-8.47,4.23c.06-3.96-.12-7.97.09-11.92l.38-.32,8.78-4.55c.05.11.13.13.17.38.43,3.38-.35,7.68,0,11.16.05.69-.66.56-.95,1.01Z"/>
      </g>
      <g>
        <path class="cls-38" d="M52.38,57.83c-.56.17-.87.12-.94-.16l-.31-.15.15-11.11.32-.18-.13-.32c3.09-1.66,6.22-3.23,9.38-4.7l.13.11c.33,3.96.2,7.99.1,11.97-.1.16-.24.29-.4.38-2.42,1.39-5.74,2.98-8.3,4.17Z"/>
        <path class="cls-43" d="M60.85,41.2c.02.39-.22.4-.47.55-2.72,1.51-5.76,2.72-8.51,4.2l-.27.27c-.07.1-.19.25-.27.21-2.78-1.28-5.8-2.83-8.51-4.27l-.16-.33c-.48.32-1.11-.32-.47-.63l9.19-4.54.62.14,8.86,4.4Z"/>
        <path class="cls-28" d="M51.6,46.22l-.16,11.45c-1.93-.31-3.44-1.62-5.14-2.47-.59-.29-1.49-.47-2.06-.76s-1.32-1.01-1.97-1.32l-.09-10.44.48-.85c.09.04.33,0,.45.09l8.49,4.3Z"/>
      </g>
      <g>
        <path class="cls-43" d="M33.56,28.03c.22.22.15.49-.1.67-2.55,1.38-5.29,2.71-7.96,3.99-.15.07-.32.11-.49.15s-.36.05-.54.06l-.26.22c-3.11-1.45-6.22-2.91-9.33-4.37l-.13-.4c-.44-.07-.37-.12,0-.31l9.51-4.67,9.3,4.67Z"/>
        <path class="cls-39" d="M33.56,28.03c.21.06.28.18.31.39.06.32.06,3.06-.02,3.19-1.49.67-2.92,1.46-4.37,2.22-.54.4-1.12.83-1.73,1.28l-.11,8.38c-.1.23-3.01,1.77-3.31,1.78-.37.01-1.3-.34-1.13-.78.11-.23.36-.27.73-.14.01-3.46-.03-6.92-.12-10.39-.04-.77.18-1.13.65-1.08,2.5-1.4,5.14-2.53,7.69-3.84.4-.2,1.35-.57,1.41-1.03Z"/>
        <path class="cls-11" d="M15.06,27.4c-.46.31-1.35,1.03-.31.63v.31c.31,3.97.31,7.95,0,11.92-.38.03-.54-.34-.47-1.1.19-1.08-.02-1.76-.62-2.03l.48-.85v-8.32c.04-.45.57-.44.93-.55Z"/>
        <path class="cls-9" d="M24.47,32.89c-.26.27-.29.49-.32.85-.14,1.5.4,10.66,0,11.07l-.94-.31c-1.87-.89-3.8-1.74-5.65-2.67-.71-.09-1.52-.3-1.88-.94-.37-.18-.69-.26-.94-.63v-11.92l9.72,4.55Z"/>
      </g>
      <g>
        <path class="cls-43" d="M11.76,17.68c2.69,1.29,5.29,2.83,8,4.08l.11.39c-2.68,1.66-5.91,3.12-9.05,4.31-.34.38-.7.54-1.19.24-2.04-1.11-4.11-2.17-6.2-3.18l-.45-.52-.99-.45c-.7.05-1.05-.17-1.05-.65v-.16c.05-.14.1-.14.16,0l9.21-4.68c.12-.03,1.22.49,1.45.61Z"/>
        <path class="cls-39" d="M15.06,27.4c-.36.14-1.22.52-.63.78v8c-.05.43-.31.74-.78.95-.23.58-1.45,1.13-2.08,1.36-.34.25-.64.27-.9.05-.53-.09-.56-.47-.16-.78l-.24-.53c-.27-3.28-.3-6.65-.23-9.96,0-.34.46-.72.78-.8,2.83-1.42,5.66-2.87,8.5-4.29.22-.11.53-.02.44-.41.46.31.43,2.67.17,3.07-.3.46-4.03,2.01-4.87,2.58Z"/>
        <path class="cls-24" d="M2.98,23.01c-.26.18-.67.15-1.25-.08-.06.03-.09.1-.11.16-.03.13-.06.27-.08.4-.09.69-.11,1.4-.13,2.1-.03,1.15-.14,7.21.27,7.85.11.17.23.29.42.37,2.54,1.09,5.01,2.34,7.41,3.77.32.09.65.15.99.18.02.27.08.53.16.78.15.45-.26.56-.65.39-1.67-.92-3.37-1.77-5.1-2.57-.03-.27-.26-.43-.68-.49-.8-.6-3.04-1.42-3.45-1.88.15-3.8-.2-7.76-.01-11.55,0-.2,0-.39.17-.53l2.04,1.1Z"/>
        <path class="cls-10" d="M.94,21.75c-.15.01-.52.09-.47-.15l.86-.32-.23.47c-.05,0-.1,0-.16,0Z"/>
        <path class="cls-28" d="M2.98,23.01c2.37.91,4.74,2.45,7.05,3.54l.79-.09-.48.85c.08,3.45-.05,7.01.17,10.44-.7.74-1.67-.32-2.4-.66-1.68-.78-3.15-1.61-4.76-2.46-.99-.52-1.99-.38-2.1-1.66-.18-2.05-.28-7.81.02-9.72.17-1.08.93-.55,1.71-.25Z"/>
      </g>
      <g>
        <path class="cls-43" d="M47.05,35.09l.04.19c-2.81,1.6-5.7,3.11-8.67,4.55l-.31-.19c-.2.21-.6.56-.9.42-1.76-.83-3.7-1.8-5.22-2.93-1.13-.7-2.33-1.27-3.6-1.59l-.16-.45c-.24-.37.33-.73.63-.47l8.83-4.36c3.07,1.7,6.35,3.04,9.36,4.83Z"/>
        <path class="cls-34" d="M41.87,40.89c-.27.43-.38.95-.34,1.56-.02,2.59-.04,5.18-.05,7.75-.15.26-3.34,1.94-3.51,1.84-.07-.04-.12-.1-.17-.17-.3-.19-.36-.4-.16-.63-.38-.38-.52-.91-.44-1.59.13-3.07.17-6.14.13-9.2.12-.44.37-.64.78-.81l8.94-4.55.16.23c-.2.71.39,2.16.01,2.68-.27.37-4.29,2.19-5.07,2.62-.16.09-.24.26-.27.27Z"/>
        <path class="cls-28" d="M31.99,37.12c1.8.78,3.58,1.65,5.29,2.64l.82-.13-.48.85c.34,3.35-.42,7.51,0,10.75l-.27.28c-2.72-1.18-5.5-2.49-8.13-3.95-.42-.26-1.26-.81-.85-1.28-.11-.02-.19-.03-.19-.05-.06-3.34-.06-6.78,0-10.12,0-.04.09-.07.2-.11-.03-.12-.05-.25.03-.35.32-.38,3.1,1.13,3.58,1.45Z"/>
        <path class="cls-24" d="M31.99,37.12c-.59-.25-2.33-1.15-2.78-1.23-.19-.03-.82.09-.82.13v10.27c0,.17.9,1.06,1.14,1.21,1.59,1,3.91,1.82,5.66,2.65.78.37,1.52,1.02,2.45,1.08.02.15.44.36.16.63-.35.03-.54-.05-.85-.17-2.18-.87-5.5-2.66-7.63-3.82-.32-.18-1.2-.59-1.32-.87v-11.76c.05-.1.19-.11.23-.15,1.23.72,2.66,1.13,3.76,2.04Z"/>
      </g>
      <g>
        <path class="cls-3" d="M60.69,91.39c.76.59-.12,1.15-.78.94v.34c-2.66,1.31-5.33,2.62-8.01,3.93l-.31-.2-.23.27c-.61.06-7.4-3.42-8.21-4.02l-.19-.49c-.77.26-1.43-.19-.63-.78.61-.3,3.43-1.75,3.83-1.72l5.21,2.63,5.47-2.63c1.35.4,2.5,1.27,3.83,1.72Z"/>
        <path class="cls-42" d="M42.34,91.39c-.43.62.22.53.63.78.04.22-.12.47-.48.77l.04,10.24c2.74,1.6,5.78,3.22,8.71,4.37l.19.3c.19-.1.27-.03.16.16.69.14.03.76-.47.47-3.15-1.39-6.13-3.17-9.25-4.63l-.16-.31c.06-.92.01-1.83,0-2.75l-.21-.31c.11-2.77.12-5.55.04-8.32l.17-.31c.17-.34.37-.34.63-.47Z"/>
        <path class="cls-32" d="M60.69,91.39c.51.17.43.23.48.86.22,2.62.28,8.35,0,10.91-.02.15-.13.67-.2.74l-9.37,4.75c-.23.07-.34-.1-.47-.16.76.12.35-.25.47-.47-.05-.13-.05-.26.02-.37,2.47-1.04,5-2.18,7.41-3.41.14-.07,1.23-1.02,1.27-1.09l.09-9.91c-.47-.34-.63-.64-.48-.9.22-.49,1.29-.18.78-.94Z"/>
        <path class="cls-8" d="M41.72,91.86c.24,2.76-.04,6.09,0,8.94-.28-.22-.62-.02-.94,0,.25-.16.58-.41.63-.71.25-2.6-.33-5.8,0-8.33.03-.24.07-.23.17-.38.08.14.14.3.16.47Z"/>
        <path class="cls-28" d="M42.97,92.17c1.99,1.26,5.14,2.73,7.39,3.82.34.17.86.35,1.24.41l.2.07c-.05,3.55-.08,7.14-.1,10.79l-.26.58c-.32.03-.59,0-.9-.12-1.45-.58-2.91-1.53-4.25-2.22s-2.88-1.08-4.03-2.21l-.08-10.28c-.03-.56.43-.59.79-.86Z"/>
        <path class="cls-38" d="M59.91,92.33c.24.41.84.43.79,1.01l-.08,9.97c-.53.3-1.05,1.04-1.56,1.26-1.88.83-3.55,1.63-5.41,2.58-.35.18-1.99.76-2.05.85-.14.01-.14-.04-.16-.16-.39-3.31.3-7.36,0-10.75l.16-.7,8.31-4.08Z"/>
      </g>
      <g>
        <path class="cls-38" d="M42.03,54.06c.85.48,1.78.94,2.75,1.42.19.09.46.12.39.39-1.12.87-2.49,1.34-3.73,1.99l-.06,8.96c-.12.41-2.86,1.68-3.42,1.83-.31.11-.51,0-.31-.31l-.27-.62c-.15-3.61-.14-7.22.03-10.8.11-.12.29-.23.56-.33l-.02-.21c1.45-.63,2.82-1.4,4.1-2.3Z"/>
        <path class="cls-43" d="M41.09,50.77c.48-.09.3.24.31.54.03.64-.18,2.25.23,2.61.14.13.32.09.4.14.22.33.22.38-.11.59-.63.4-3.3,1.75-3.96,1.92l-.43.42c-2.49-1.22-4.98-2.44-7.48-3.67l-.08-.36-.65-.3c-.56-.03-1.69-.27-.92-.8.07-.21.15-.44.34-.54,1.12-.6,2.29-1.15,3.45-1.65,1.81.85,3.61,1.69,5.38,2.53,1.08-.4,2.13-.89,3.14-1.45h.38Z"/>
        <path class="cls-24" d="M28.39,51.87c-.33.5-.04.22.22.33.44.19,1.07.35,1.35.77l-.11.19c-1.1-.23-1.43.36-1.01,1.79-.23,2.84-.25,5.71-.08,8.61l1.4.83c2.53,1.08,5.02,2.36,7.31,3.64l.16.31.31.31c-.14.04-.34.32-.66.12-2.03-1.13-4.18-2.04-6.24-3.1-.64-.33-2.3-1.06-2.74-1.41-.19-.15-.36-.29-.39-.55l.07-11.69c.1-.16.33-.1.4-.15Z"/>
        <path class="cls-28" d="M29.95,52.96c.21.05.5.24.77.25l6.6,3.45c.22.07.42-.03.63-.09-.19.22-.29.4-.32.7-.38,3.44.3,7.55,0,11.06-.92.08-1.49-.76-2.21-1.17-.84-.47-1.75-.68-2.61-1.19-.99-.59-2.16-.94-3.16-1.5-.31-.17-1.06-.55-1.19-.85-.1-2.58-.14-5.18-.09-7.77,0-.32.14-.6.15-.92.01-.55-.39-1.08,0-1.75.35-.58.9-.36,1.42-.23Z"/>
      </g>
      <g>
        <path class="cls-38" d="M15.06,74.45c.75.47,1.54.74,2.22,1.15.16.1.77.5.6.73-1.08.44-2.1,1.05-3.14,1.57-.29.1-.79.32-.45.62.1,2.42.18,4.95.14,7.47,0,.39-.05,1.25-.47,1.31-.75.34-2.89,1.73-3.61,1.73-.42-.17-.45-.49,0-.63-.08-.12-.15-.24-.21-.37s-.1-.25-.11-.37c-.07-2.46-.13-4.94-.11-7.41.01-1.02.04-2.07.15-3.06.01-.22.21-.26.44-.24v-.34c1.49-.77,3.01-1.49,4.55-2.17Z"/>
        <path class="cls-3" d="M14.12,71c.3.68.37,1.03.28,1.81-.27.21-.31.6-.12,1.17.22.34.55.32.78.47.07.31-.16.37-.38.47l-4.16,2.04c-.21,0-.43-.02-.64-.05s-.41-.07-.59-.15c-2.36-.99-4.94-2.18-6.93-3.72-1.16-.04-1.58-.36-1.25-.94.85-.77,2.94-1.26,3.92-2.04h.38c1.65.81,3.31,1.62,4.96,2.42,1.19-.49,2.35-1.07,3.48-1.71l.28.23Z"/>
        <path class="cls-27" d="M1.1,72.1c-.12.67.19.38.61.56.23.1.43.27.64.38-.11.22-.33.35-.66.37-.18,3.25-.22,6.55-.14,9.88.03.52.35.87.82,1.1,2.8,1.18,5.45,2.52,7.97,4.02v.63c-.46,0-4.03-1.85-4.76-2.22-.62-.31-4.59-2.26-4.72-2.49v-12.08c.05-.1.19-.11.23-.15Z"/>
        <path class="cls-5" d="M10.67,72.1l.12-.39c.98-.44,1.94-.94,2.85-1.5l.32.17c.14-.09.14-.3.16-.31.37-.19.35,1.35.31,1.57l-.31-.63c-.33-.09-3.14,1.77-3.81,1.69-1.75-.85-3.63-1.62-5.29-2.63-.46-.28-1.18-.92-1.72-1.25.79.23,1.59.67,2.33,1.04,1.53.76,3.07,1.51,4.53,2.38.27.15.38-.08.5-.13Z"/>
        <path class="cls-28" d="M2.36,73.04c2.69,1.34,5.4,2.73,8.15,3.92-.16.21-.15.45-.16.7-.25,3.35,0,7.33,0,10.75-.68.21-.88-.32-1.3-.51-2.03-.91-3.92-1.9-5.95-2.83-.93-.43-1.76-.67-1.85-1.75-.27-3.1.21-6.58.01-9.73.09-.56.6-.6,1.09-.55Z"/>
      </g>
      <g>
        <path class="cls-7" d="M44.38,88.88c.51.28.61.54.31.78-.61.34-2.89,1.34-3.14,1.73.04,2.93.03,5.86,0,8.8-.02.31-.28.51-.78.61-.76.5-1.98.9-2.82,1.25-.32.24-.64-.16-.31-.47-.08-.18-.15-.37-.2-.56s-.09-.37-.1-.56c-.06-3.35-.1-6.76,0-10.07,0-.17.15-.25.44-.27-.05-.11-.12-.28-.05-.33.49-.32,3.73-2.04,4.11-2.11l.49.08c.66.38,1.37.71,2.04,1.1Z"/>
        <path class="cls-43" d="M28.7,85.11c1.16-.6,2.3-1.29,3.54-1.72,1.37.21,4.12,2.44,5.33,2.5.67.03,3.69-1.87,3.83-1.72v3.02c.02.11.75.47.94.58l-4.55,2.35-.19.33c-2.11-.77-4.13-1.8-6.06-3.11l-1.71-.75-.21-.38c-1.56-.29-1.88-.66-.94-1.1Z"/>
        <path class="cls-24" d="M28.7,85.11c-.17.16-.39.11-.31.39l1.25.71c-.17.2-.46.3-.87.3-.04,2.68-.09,5.38-.16,8.11,0,2.22.1,2.53,2.15,3.32,2.13,1.39,4.36,2.5,6.68,3.34l.19.3.31.47s-.1.34-.36.29c-.26-.23-.6-.26-.88-.39-2.41-1.15-5.19-2.5-7.53-3.76-1.78-.96-1.25-1.5-1.27-3.35-.04-3.05.03-6.11,0-9.17.12-.65.52-.42.78-.55Z"/>
        <path class="cls-28" d="M29.64,86.21c2.25.55,5.28,3.1,7.54,3.83.21.07.39.13.61.09-.19.26-.15.56-.16.86-.12,3.52.1,7.07,0,10.59-.32.03-.59,0-.9-.12-2.01-.81-4.17-2.14-6.05-3.2-1.03-.58-2.18-.62-2.31-2.08-.28-3.04.22-6.49,0-9.57.09-.59.81-.5,1.25-.39Z"/>
      </g>
      <g>
        <path class="cls-5" d="M54.73,5.76c.14.69.14,1.5,0,2.2.21.19.21.35,0,.47.07.1.18.24.13.32-.6,1-3.9,2.11-5.15,2.35-.43.38-.66.98-.34,1.51l7.68,3.77.03.36c.12.02.3.05.31.14.05.32.06,2.83,0,3.09l-.31.22c.08-.44,1.23-.96,1.57-.63.4-1.09,1.79-1.4,2.75-.7.04-.46.22-.81.54-1.05.69-.48,5.09-2.9,5.61-2.95.18-.02.35.05.5.15.52-.89,1.11-.02.16.47-1.57,1.31-3.5,2.32-5.49,2.82-.32-.14,0,1.21.06,1.27l7.76,3.94.02.36c.46-.06.38,2.32.28,2.58-.05.14-.12.28-.28.32.1-.49.89-1.18,1.25-.63.84-1.03,2.09-1.71,3.45-1.16-.04-.58.4-.89.85-1.16l5-2.49c.15-.6.19-1.22.12-1.86l.3-.22c.14-.06.35-.05.36.06.05.55.04,1.09.01,1.64.57.32.79.54.1.81-1.55,1.3-3.52,2.33-5.49,2.82-.34-.13.03,1.2.08,1.25l6.55,3.23c.47.21.72.5.74.85.75.33.16,1.54-.16.47-.14.26-.19.2-.16-.16l-.14.17c-3.09-1.31-6.41-3.01-9.31-4.58-2.39,1.29-4.81,2.54-7.23,3.77-.31.15-.63.26-.97.37s-.67.2-1.01.28c.04.32-.09.39-.31.16-.22.79-.86.44-.47-.31-.15-.34.08-.62.7-.86l4.73-2.27.09-1.57c-.05-.52.03-.98.13-1.41-.08.2-.27.19-.45.13l-9.01-4.46c-2.7,1.33-5.48,2.73-8.35,4.2l-.86.14c-.3-.16.02,1.21.06,1.27l7.12,3.44c.62.23.84.52.66.85.12.02.3.05.31.14.04.19.04,2.22,0,2.39l-.31.22c.04-.43.96-.82,1.25-.47.53-.72,2.06-1.77,2.82-1.1l.55.24c.69-.31.96-.28,1.02.55l.32-.08c2.69,1.31,5.36,2.65,8.03,4.02.12,3.59.16,7.2.12,10.81.46.29.88.6,1.26.93l.39-.45c2.88-1.55,5.76-3.03,8.67-4.45l.36.03c.25-.82.96.13.31.47-.23.72-1.63,1.44-2.35,1.25-.14.38-.39.66-.77.87l2.77,1.42.35.54c.46.22-.11,1-.31.31-.04.14-.09.14-.16,0-.06.16-.18.22-.34.18l-3.82-1.82-5.06,2.56c-.45,0-.88-.16-1.29-.46.4,1.07-1.66,1.92-2.51,2.24l-.31-.19c-.1.38-.4.66-.91.82,1.31.61,2.55,1.31,3.71,2.09l.02,10.45c.35.39.77.7,1.26.92l.31-.39c2.66-1.31,5.31-2.64,7.96-3.96.41-.41.79-.58,1.14-.51.28-1.12.59-.51.63.31.5.5-1.59,1.61-2.04,1.25l-.16.22c-1.12.27-1.2.84-.15,1.35.46-.16,1.74.41,1.72.94.82.35.56,1.48,0,.63-.13.22-.18.17-.16-.16l-.37.14-2.04-.93c-.45-.35-.91-.56-1.38-.6-1.87,1.02-3.77,1.92-5.71,2.73-.87-.53-1.22-.41-1.03.39-.15.38-1.98,1.38-2.33.95-.26.4-.58.72-.98.95.27.09.49.3.66.61.06-.1.17-.25.26-.22.53.19,2.14,1.04,2.35,1.48l.06,10.56c.25.33.67.52,1.07.58l.17.3.17-.44,8.84-4.4c.05-.36.18-.57.39-.66.12-1.14.33-1.4.63-.78.29-.42,1.2.19,1.1.63.42.19.49.09.67-.31l8.74-4.43.31.19c.37-.75,1.03.11.31.31l-1.44.82c-.16.49-.41.64-.76.44.08.3-.17.55-.78.75.57.12.77.34.62.66.97-.6,1.28,1.07,0,.47-.6.13-1.24-.05-1.95-.55l-5.17,2.66c-.46,0-.9-.18-1.33-.55.03.51.03.8-.36,1.17s-2.1,1.04-2.64,1.03c-.16.31-.37.56-.64.75l2.52,1.31.16.45c.91.42.49,1.79,0,.63-.3.12-.45.01-.47-.31l-.28.2-3.47-1.73-5.08,2.55c-.46.08-.91-.05-1.34-.38.28,1.1-1.34,1.76-2.22,2.07l-.31-.19c-.23.04-1.23.95-1.21,1.03l.74.53c.09-.08.22-.17.32-.13.55.24,2.38,1.27,2.61,1.71l.04,10.5c.39.3.66.62.8.93,1.39-.04.44.87-.47.16-.2-.04-.43-.09-.63-.16-.27.22-.29.16-.31-.16l-.19-.15c.06-3.16.07-6.34.04-9.52-.06-.61-.2-1.19-.47-1.62l-.29.22c-1.16-.62-2.34-1.19-3.54-1.71l-4.99,2.5c-.36.14-.7.02-1.02-.16-.56,1.03-2.36,1.93-3.49,1.97.09.25-.06.42-.43.5,1.51.49,2.78,1.22,3.83,2.18l.05,10.74c.35.2.45.42.32.69.05.35-.12.43-.52.26-.3.34-.42.4-.58-.1l-.19-.16c.07-3.76.07-7.5,0-11.22l-.27-.39-.47.16-3.35-1.58-5.45,2.62c-1.79-.81-3.55-1.68-5.3-2.6-1.18.46-2.33.99-3.46,1.59l-.32-.19c-.11.44-.32.59-.63.47-.2.02-.25-.14-.16-.47-.06-.11-.16-.27-.1-.35.2-.27,2.45-1.39,2.9-1.55l.34.18c.09-.29-.01-.55-.31-.78-.75.12-1.76-.39-2.04-1.1-.51.15-.91-.03-1.22-.47l-.05-2.7c-1.12.67-2.29,1.2-3.51,1.59-1.8-.72-3.56-1.56-5.29-2.5-1.05.41-2.04.94-3.03,1.48l-.56-.06c-.43.22-.61.68-.53,1.39.09,2.8,0,5.57-.25,8.33l-.22.03c-.14-.29-.33-.56-.57-.82.18-2.4.23-4.82.14-7.25.08-1.82.35-2.35,2.07-2.73.39-.47.94-.8,1.65-.99-.93-.63-1.93-1.26-3.01-1.67.09-.16.08-.29-.07-.38-.04.49-.56.35-.65-.16.03-.98.04-1.94-.1-2.91-1.02.62-2.06,1.06-3.13,1.31-1.79-.76-3.53-1.64-5.2-2.64-.98.65-2.02,1.2-3.11,1.66l-.52-.09c-.14.18-.3.28-.47.31-.69.85-.96-.44,0-.63l.3-.51,2.41-1.28c-.71-.45-1.46-.85-2.24-1.21l-.15-.45c-.27.44-1.06.02-.78-.47-.27-.67.06-2.04.32-.84l.15.53c.39-.02.79.17,1.2.56,2.72,1.34,5.45,2.66,8.19,3.94.16-.13.29-.1.49.05l.37-.47c.74-.28,1.44-.63,2.11-1.05l.03-8.21c-.04-.44.31-.67.66-.84,1.12-.41,2.1-.97,2.95-1.66-.05-.13.05-.23.31-.31,1.37.37,2.72.92,4.04,1.64.95.7,1.9,1.15,2.86,1.34v-.33c1.08-.43,2.15-.9,3.1-1.58l.07-8.69.08-.35c1.24-.6,2.39-1.24,3.44-1.93-1.1-.38-1.98-.95-2.62-1.7-.73.82-1.07-.88-.97-1.56.05-.71.06-1.29.03-1.73-.09-.33.33-.58.63-.47l.21.14c0,.91.05,1.83.14,2.74,2.87,1.83,6.12,3.37,9.26,4.72l1.05-.08.37-.52c2.77-1.25,5.45-2.62,8.04-4.11.15-3.77.13-7.56-.08-11.32.19-.24.26-.47.14-.68l-.27.22c-3.03-1.57-6.08-3.04-9.16-4.43l-8.92,4.41-.31-.2c-.21.27-.32.27-.31,0-.15-.13-.15-.23,0-.31-.3-.2-.17-.36.1-.53,1.7-.79,3.37-1.64,5-2.55l.05-.48c-.2-.81-.2-1.55.02-2.24l-.94-.18-8.41-4.3-8.53,4.21-.31-.2c-.12-.2.08-.47.63-.78.09-.14.18-.27.29-.39s.22-.23.34-.3c1.13-.61,2.28-1.2,3.44-1.75v-3.36s-.28.21-.28.21l-9-4.52-9.23,4.51-.31-.2c.05.3-.34.58-.53.34-.31-.41.5-.89.84-.97l.05-.4,3.53-1.74c1.03-.34,1.41-1.14,1.14-2.42-.08-.4-.09-.76-.02-1.09-.71.05-1.33-.25-1.93-.59-1.35-.61-4.82-2.23-5.71-3.08-.13-.12-.24-.26-.35-.4-.31-.38-.09-.59.31-.31l.27-.22,7.71,3.83c.5.25.66.54.49.86.12.02.3.05.31.14.1.51.14,2.23-.31,2.45.13-.34.79-.78,1.1-.47.45-.97,2.25-1.56,3.31-1.28.17-.39.48-.67.91-.87l4.13-2c.83-.27.91-.75.93-1.54.06-.65.15-1.84-.35-2.16-.33.01-.68.03-.99-.1-1.33-.54-5.39-2.45-6.21-3.27-.12-.12-.23-.25-.33-.39-.4-.27-.54-.43-.03-.51-.08-.24.22-1.14.5-.43.18.1.34.29.48.58l7.64,3.76.03.36c.46.06.37,1.56.31,2.05.09.45-.01.74-.31.85l1.24-.72.33.17c.17-.62,1.93-1.46,2.52-1.36.54.45.84.34.91-.34,1.79-1.07,3.64-2.05,5.57-2.92.46-.45.15-2.05.03-2.64.21-.06.29-.21.23-.42-.58,0-1.13-.15-1.62-.46-1.94-.85-4.1-2.03-5.75-3.3-1-.56-.67-.86,0-1.41.4-.15.46.47.36.68,2.47,1.26,4.94,2.52,7.4,3.78l.39.4.31.18v2.63l-.31.33c.14-.57,1.03-1.04,1.57-.78.47-1.05,2.24-1.61,3.23-.88,0-.46.14-.82.43-1.06l5.43-2.75c.3-.76.2-1.62.09-2.42l.23-.26c.21-.22.37-.12.47.31Z"/>
        <g>
          <path class="cls-23" d="M53.95,4.5c.17.09.92.3.95.41,0,.83-.04,1.67,0,2.5.01.3-.16.63.31.54.11.28-.62.47-.47,0,.04-.68.03-1.51,0-2.2-.05-1.19-.12-.45-.78-1.25Z"/>
          <path class="cls-43" d="M56.3,17.05c.13.12.13.36.05.51-.21.39-6.84,3.55-7.93,4.05-.28.13-.6.14-.9.15-.48.46-.96.49-1.44.11-2.74-1.46-5.52-2.86-8.32-4.19-.43,0-.52-.51-.11-.62,3.08-1.62,6.21-3.17,9.34-4.71,3.1,1.57,6.26,3.06,9.32,4.71Z"/>
          <path class="cls-43" d="M44.85,22.7c.17.41.12.64-.32.7-2.79,1.54-5.67,2.88-8.62,4.01l-.39.33c-2.86-1.03-5.63-2.35-8.32-3.97-1.16-.38-1.5-.73-1.01-1.06.07-.06.13-.24.27-.27l8.92-4.44,9.47,4.71Z"/>
          <path class="cls-43" d="M58.18,29.6c.17.41.12.64-.32.7l-6.46,3.24c-.35.11-.7.16-1.07.14-.58.45-1.27.92-1.99.85l-7.71-3.82c-.69-.3-1.06-.67-1.12-1.11,3.08-1.62,6.22-3.14,9.33-4.7l9.33,4.7Z"/>
          <path class="cls-38" d="M56.3,17.05l.25.23c-.02,1.14.17,2.26-.17,3.39l-5.95,2.99c-.41.27-.22.81-.25,1.24-.49-.1-.77-.47-1.33-.47-.47,0-1.19.42-1.65.63-.74-.53-.89-3.1.31-3.29,2.47-1.44,5.13-2.55,7.67-3.86.31-.16,1.12-.45,1.12-.84Z"/>
          <path class="cls-39" d="M35.6,30.54l-.33-.12c-.26-.68-.44-3.02.65-3.02,2.81-1.48,5.66-2.87,8.5-4.29.22-.11.53-.02.44-.41.43.52.45,3.04,0,3.53-.16.17-2.12,1.19-2.52,1.4-.77.41-2.64,1.05-3.2,1.51-.31.25-.49.91-.63.94-.17.04-.35-.24-.51-.28-.62-.16-1.8.45-2.39.75Z"/>
          <path class="cls-38" d="M58.18,29.6c.6.93-.07,1.92.25,2.91-1.57,1.19-3.69,1.77-5.35,2.89-.39.27-.68.74-.73.77-.1.06-.9-.19-1.4-.07-.44.1-1.51.78-2.03,1.03-.58-.97-.77-2.79.75-2.99l.66-.46c2.51-1.1,4.95-2.43,7.4-3.66.22-.11.53-.02.44-.41Z"/>
          <path class="cls-9" d="M49.71,11.09l-.31.62c1.38.69,2.83,1.28,4.21,1.98,1.13.57,3.69,2.23,4.72,2.5.27.07.52-.08.79-.09-.86.77-.33,2.38-.47,3.45-.48.23-1.05.55-1.57.63v-3.45l-7.93-3.91c-.53-.79-.21-1.37.56-1.73Z"/>
          <path class="cls-16" d="M58.5,88.88l4.39,2.2.21.26c-.15,3.7-.15,7.42,0,11.14l-.2.36c.14.04.13.1,0,.16-.44.11-.49-.01-.63,0l-.63-.55-.03-10.79c-.34-.82-3.62-1.76-3.89-2.15s.66-.55.78-.62Z"/>
          <g>
            <path class="cls-38" d="M62.73,86.21l-.28-.14c-.08-3.95-.07-7.89.04-11.83.42-.06.81-.2,1.18-.42l.13-.34c2.62-1.59,5.35-3,8.18-4.21.06.05.19.05.24.15.11,3.93.18,7.96-.04,11.89-.19.4-1.65,1.06-2.13,1.32-2.39,1.26-4.92,2.31-7.32,3.58Z"/>
            <path class="cls-3" d="M71.98,69.27c.03.4-.25.39-.49.53-2.51,1.43-5.46,2.42-7.82,4.02-.43.22-.86.41-1.27.55l-3.54-1.9-.05-.38c.62-.33,1.98-.88,2.43-1.25.69-.56,0-1.16,1.52-.5l5.55-2.8.41.03c.93.69,2.36,1.03,3.26,1.69Z"/>
            <path class="cls-16" d="M63.67,73.82c-.32.22-.53.44-.95.57v11.82c-.42-.09-1.01-.19-1.08-.71l-.04-10.78c-.22-.75-3.14-1.5-3.5-1.99-.3-.4.48-.51.71-.63l3.73,2.01,1.13-.29Z"/>
          </g>
          <path class="cls-9" d="M62.73,18.3c-.35.51,0,.21.22.33,2.51,1.31,5.34,2.9,7.91,4.01.62.27,1.06.62,1.75.36-1.14.86.15,2.26-.78,3.14-.13.06-.33.08-.52.18-.28.14-.39.52-.73.45v-2.9l-8-4.08c-.21-.18-.23-1.12-.17-1.39.05-.19.25-.06.32-.09Z"/>
          <path class="cls-9" d="M51.12,23.95c-.34.5-.04.22.22.33,2.63,1.19,5.12,2.69,7.76,3.84.58.26.87.77,1.74.53-.82.65.17,2.31-.63,3.14-.4.18-.82.4-1.25.47v-2.74c0-.45-7.1-3.52-8-4.08-.21-.18-.23-1.12-.17-1.39.05-.19.27-.07.32-.1Z"/>
          <path class="cls-28" d="M37.64,17.05c-.34.5-.04.22.22.33,3.01,1.36,5.92,2.98,8.87,4.46l.79-.09c-.83.57-.48,2.39-.31,3.29-.28.13-1.55.95-1.72.78.2-1.07.24-2.2.08-3.29l-8.01-4.07c-.27-.22-.3-1.02-.23-1.33.05-.19.25-.06.32-.09Z"/>
          <path class="cls-9" d="M45.32,9.84c-.9.59-.31,1.99-.47,2.98-.52.27-1.08.57-1.57.78v-3.14c-2.72-1.15-5.4-2.58-8.01-3.99l-.14-.87c.05-.08.03-.24.16-.31l.57-.06,8.49,4.29c.52-.08.85.02.98.32Z"/>
          <path class="cls-9" d="M23.68,10.78c-.06.66.01.37.39.47,2.66.68,5.99,3.43,8.63,4.25.41.13.62.08,1.02,0-.9.57-.31,2.04-.47,2.98-.28.14-1.57,1.09-1.57.55v-2.9l-7.83-3.85c-.37-.18-.32-.5-.33-.85,0-.22-.08-.49.16-.63Z"/>
          <path class="cls-14" d="M26.19,22.7c-.34.5-.04.22.22.33,2.56,1.16,6.14,3.5,8.58,4.29.32.1.6.12.93.09-.81.72-.45,2.16-.31,3.14-.17.09-1.25,1.01-1.25.39v-2.98c0-.48-7.67-3.68-8.55-4.47-.34-.74.18-.62.39-.78Z"/>
          <path class="cls-9" d="M39.52,29.6l1.28.84,7.66,3.79c.7.25,1.28-.29,1.89-.56-.23.6-1.12.56-1.38,1.06-.32.59.11,1.7-.03,2.39-.34.16-.66.49-1.1.47l-.18-2.96-8.42-4.13c-.06-.1-.06-.83,0-.91.05-.06.25.02.3-.01Z"/>
          <path class="cls-32" d="M27.92,81.04c.41.16,1.03.62,1.54.89.25.13,2.39.95,2.07,1.3-.64.18-3.77,1.59-3.89,1.99-.16,2.84.19,5.74-.2,8.55-.05.14-.19.21-.3.28-.23.16-2.59,1.33-2.79,1.38-.57.14-.55-.23-.66-.28l.63-.31v-.37c1.99-.77,2.34-.92,2.38-2.98l-.05-4.52c.06-1.32.39-2.83,1.84-3.21.34.27,1.17-.9,1.11-.96-.44-.45-1.23-.73-1.84-.8l-.15-.34c.27-.15.58-.33.31-.63Z"/>
          <path class="cls-9" d="M12.71,16.11l-.31.62c.07.1,1.54.65,1.81.78,1.89.98,4.95,2.92,6.83,3.52.32.1.6.12.93.09-.59.51-.21,2.07-.31,2.82-.35.18-.63.56-1.1.47v-2.59s-.52-.53-.64-.61l-7.83-3.86c.03-.09-.15-.54.09-.94.19-.32.36-.22.54-.32Z"/>
          <g>
            <path class="cls-38" d="M71.98,36.18c.41.85.35,1.67.24,2.6l.03,8.29c.07.69-.18,1.01-.74,1.34-2.91,1.49-5.84,2.96-8.78,4.39-.15-.02-.29-.08-.31-.24v-11.49l.31-.19c-.05-.16.11-.27.47-.31l.22-.51c2.73-1.45,5.49-2.81,8.26-4.08l.3.2Z"/>
            <path class="cls-43" d="M72.14,35.87c.28.21.17.47-.16.31l-5.57,2.66c-1.05.57-2.22,1.07-3.21,1.73-.46.29-.85.09-1.26-.18-.43.11-.92-.01-1.45-.38-2.32-1.24-4.61-2.46-7.01-3.54-.4-.18-.65-.32-.16-.61,3.12-1.64,6.28-3.22,9.48-4.71,3.05,1.45,6.21,3.48,9.34,4.71Z"/>
            <path class="cls-16" d="M62.73,40.89v11.92c-.39.03-1.03-.31-1.1-.7.03-3.51-.03-7.01,0-10.52,0-.26-.17-.66-.16-.7-.54-.91.97-.44,1.25,0Z"/>
            <path class="cls-15" d="M53.32,35.87c-.34.51-.03.22.23.31,2.41.87,4.93,2.58,7.31,3.67.71.33,1.57.79,2.33.72-.14.1-.26.28-.47.31-.3.09-.81-.47-.86-.47-.03,0-.39.44-.39.47l-8.44-4.1c-.06-.11-.06-.83,0-.91.05-.06.25.02.3-.01Z"/>
            <path class="cls-13" d="M72.14,35.87c.09.03.32-.1.32.09v11.6c.04.58-.57.66-.95.85.22-.32.42-.42.48-.85.22-1.66-.03-4.19-.02-5.97,0-.95.01-1.86,0-2.81,0-.42.24-.87.17-1.43s-.48-.64-.49-.93c0-.11.21-.14.32-.24.11-.1.17-.15.16-.31Z"/>
          </g>
          <path class="cls-41" d="M93.31,71.94c.24.32.35,1.6-.16,1.41-.12-.26-1.25-.41-1.1-.7.14-.28.99-.53,1.25-.71Z"/>
          <path class="cls-27" d="M70.57,82.92c-.33.15-.34.41-.47.63-.23.39-.57.28,0,.94-.5.08-.91-.24-1.25-.55,0-.08,1.1-.84,1.26-.93.18-.1.4-.05.46-.08Z"/>
          <path class="cls-30" d="M70.73,66.29c-.11.13-.1.36-.16.47-.19.34-.58.45-.16,1.1-.42-.23-1.25-.32-1.25-.94.71.14.96-.33,1.57-.63Z"/>
          <path class="cls-12" d="M82.33,60.65l-.16.47c-.81-.21-.8.54-.16,1.1-.29.06-1.41-.54-1.41-.71.43-.21.84-.57,1.26-.78.17-.09.39-.05.46-.09Z"/>
          <path class="cls-33" d="M64.14,30.07c-.04.64,0,.52.47.31v1.1c-.13-.17-.15-.44-.17-.46-.08-.07-1.13.36-1.4-.32.19-.01.5.15.64.08.21-.11.28-.52.46-.71Z"/>
          <path class="cls-42" d="M44.38,88.88c.18.1.67.11.78.39s-.23.26-.47.39l-.31-.78Z"/>
          <g>
            <path class="cls-38" d="M60.85,74.76c.28.35.28.59.32,1.01.22,2.68.1,6.54,0,9.27-.02.61-.25,1.27-.19,1.92l-9.22,4.58c-.45,0-.55-.26-.31-.78-.37-.4-.52-.94-.43-1.62.12-3,.16-6,.12-9,.1-.39.2-.61.62-.67-.05-.12-.09-.3-.01-.35,2.43-1.37,5.56-3.1,8.09-4.18.34-.27.68-.33,1.02-.17Z"/>
            <path class="cls-3" d="M60.85,74.76l-9.1,4.7c-.34.4-.88.36-1.63-.13-2.26-1.34-4.57-2.53-6.95-3.57l-.21-.38-.43-.22c-.85.36-.66-.35-.04-.72.37-.22,3.02-1.59,3.2-1.57l5.8,2.83c1.03-.27,5.1-2.88,5.8-2.83.26.02,3.34,1.63,3.54,1.88Z"/>
            <path class="cls-30" d="M42.5,74.45c-.12.23-.37.35-.31.63.32-.01.66-.03.78.31-.1.16-.26.26-.48.28l.08,10.74c2.86,1.55,5.72,3.02,8.59,4.41l.28-.06c.02.14.3.56.31.78l-.61.08-9.35-4.78c-.27-.64.06-1.35.07-1.95,0-.71-.14-1.65-.15-2.36-.02-2.06-.25-5.31,0-7.23.09-.7.36-.6.79-.85Z"/>
            <path class="cls-28" d="M42.97,75.39c2.25.5,5.56,3.01,7.91,3.93.31.12.53.21.87.15l-.32.7c.32,3.32-.4,7.36,0,10.59.13.69-1.19,0-1.39-.1-1.4-.62-2.73-1.48-4.09-2.18-.7-.36-3.45-1.46-3.69-1.95l-.08-10.9c.1-.58.4-.32.78-.24Z"/>
          </g>
          <g>
            <path class="cls-38" d="M51.75,74.92c-.56.05-.81-.48-.31-.78l-.24-.33c-.18-3.31-.19-6.8-.07-10.15.01-.35.45-.72.78-.81,2.71-1.92,5.97-3.4,8.94-4.7.25.25.29.83.32,1.17.22,2.76.06,5.89,0,8.62-.02.77-.11,1.53-.08,2.29-3.01,1.74-6.2,3.19-9.33,4.7Z"/>
            <path class="cls-3" d="M60.85,58.14c.08.37-.18.33-.41.44-2.86,1.39-5.66,2.9-8.53,4.26-.27.27-.52.49-.93.36l-7.9-4.11c-.24.02-.36-.06-.42-.33-.45.22-1.11-.27-.47-.63.63-.4,3.42-1.93,4-1.9,1.03.05,3.98,2.21,5.19,2.53.55.07,2.97-1.45,3.69-1.79s1.62-.91,2.33-.64c.73.72,2.83,1.18,3.46,1.8Z"/>
            <path class="cls-42" d="M42.19,58.14l-.16.31c.35-.13.56.29.63.32.25.21.18.52-.19.94l.03,9.91c.28.53.79.86,1.53,1,.35.17.78.41.67.85.59.21.9.47.94.78-.63-.32-3.72-1.64-3.89-2.14l.05-11.83c.1-.16.33-.1.4-.15Z"/>
            <path class="cls-27" d="M51.44,74.14c.03.34.08.53.31.78l-.66.13c-1.34-.83-2.78-1.49-4.2-2.17-.34-.24-.71-.45-1.1-.63-.04-.02-.12.02-.16,0-.11-.06-.72-.65-.94-.78.37-.23.86-.17,1.48.19,1.5.97,3.14,1.9,4.98,2.14l.29.33Z"/>
            <path class="cls-42" d="M46.89,72.88c-.36-.17-.9-.26-1.1-.63.33.17.93.09,1.1.63Z"/>
            <path class="cls-28" d="M51.91,62.84l-.48.85c.23,3.39-.27,7.09,0,10.44-1.47-.05-3.05-.84-4.38-1.5-.2-.1-.33-.37-.59-.5-.49-.25-1.23-.48-1.77-.66-.34-.2-.41-.35-.59-.47-.54-.33-1.66-.33-1.91-1.34v-10.04s.47-.85.47-.85c.11.05.45-.05.61.09l7.86,4.08.78-.09Z"/>
          </g>
          <path class="cls-42" d="M42.19,41.2l-.16.31c.29-.05.47.24.63.32.25.21.18.52-.19.94l.11,10.16c1.21.96,2.38,1.55,3.86,1.99l3.17,1.81c.75.22,1.36.53,1.83.94.3.05.49.13.83.03l.11.13c-.48.22-.85.48-1.42.24l-8.85-4.48c-.65-.52-.38-2.41-.39-3.29-.03-2.02-.33-7.5.16-9.1h.31Z"/>
          <g>
            <path class="cls-39" d="M37.8,85.27c-.33-.15-.5-.53-.16-.78l-.35-.41c-.21-3.57-.12-7.22.11-10.77l.4-.12.19-.37c1.23-.59,2.41-1.24,3.54-1.95l.35.12c.72.46,1.85.8,2.6,1.25.16.09.45.13.38.4-.06.22-3.27,1.43-3.42,1.91-.23,2.57.21,5.44-.02,7.98-.03.32-.06.74-.25,1.01-.22.32-2.88,1.62-3.37,1.73Z"/>
            <path class="cls-3" d="M28.23,68.49c.25-.26,3.4-1.88,3.69-1.87l5.66,2.82,3.83-1.73c.17,1.01-.44,2.71.47,3.29l-.76.61c-.92.21-2.51,1.5-3.32,1.59l-.24.32c-2.21-.82-4.34-1.88-6.39-3.18l-1.81-.79-.18-.43c-.95-.02-1.26-.23-.94-.63Z"/>
            <path class="cls-26" d="M28.23,68.49c-.11.52.31.22.68.34.2.07.24.27.26.28-.03.19-.17.33-.41.44-.04,2.84-.08,5.69-.14,8.56,0,1.31.09,2.32,1.31,2.96l2.3.83c1.75,1.06,3.55,1.92,5.4,2.59.01.13.3.49.16.78-.12.03-.26.22-.45.08l-9.35-4.78v-11.92c.05-.1.19-.11.23-.16Z"/>
            <path class="cls-9" d="M29.17,69.12c.54.26,1.18.47,1.71.72,1.82.88,4.57,2.71,6.31,3.27.22.07.36.12.61.09-.19.26-.15.56-.16.86-.1,3-.29,7.55,0,10.44-.27.11-.46.12-.75.05-1.43-.34-3.28-1.63-4.63-2.29-.79-.38-1.54-.55-2.3-.83-.8-.3-1.51-1.16-1.58-2.02-.26-3.04.22-6.49,0-9.58,0-.47.31-.74.79-.7Z"/>
          </g>
          <g>
            <path class="cls-38" d="M71.51,53.28l.67.17c.1,3.8.08,7.55-.07,11.26l-.75.65-8.62,4.39-.31-.24.08-11.49c-.03-.28.2-.45.7-.5-.11-.07-.16-.16-.17-.29,0-.48,6.97-3.64,7.99-4.06l.49.11Z"/>
            <path class="cls-3" d="M71.67,52.49c.59.44.7,1.19-.16.78-2.33,1.15-6.01,2.59-8.04,3.96-.16.11-.18.19-.27.27-.34.32-.71.38-1.11.18-1.29-.58-2.55-1.22-3.76-1.93-.04-.17.06-.32.32-.45.63-.34,2.06-.99,2.5-1.35.79-.65.14-1.2,1.62-.56l5.24-2.6c1.18.53,2.54,1.08,3.66,1.69Z"/>
            <path class="cls-16" d="M58.65,55.32c-.31.46-.09.22.18.36.88.47,2.59,1.47,3.44,1.74.32.1.6.12.93.09-.12.11-.27.19-.38.32l-.09,11.92c-.37-.14-1.02-.29-1.1-.7l-.02-10.95c-.19-.56-3.22-1.5-3.74-2.06-.13-.14-.19-.19-.15-.4.29-.03.69-.18.94-.32Z"/>
            <path class="cls-25" d="M71.35,65.35c.05-.35.52-.63.59-.9.26-.88.02-2.64.03-3.57,0-2.09-.04-4.2,0-6.29,0-.25.17-.66.15-.77-.07-.32-.72-.06-.61-.56.15-.08.27-.2.47-.16l-.31-.63c.69.37.7.49.78,1.34.3,3-.11,6.25-.16,9.24-.02.9.68,2.02-.94,2.28Z"/>
          </g>
        </g>
      </g>
      <g>
        <path class="cls-39" d="M30.74,65.98s.14.27.12.37c-.11.46-3.31,1.53-3.42,1.93l-.03,8.64c-.91.49-1.81.94-2.79,1.29-.36-.22-.27-.45.07-.18-.68.18-.81-.38-.38-1.71l-.33-.6c-.1-1.27-.51-8.82,0-9.28l.49-.16c-.03-.07-.06-.14-.07-.21-.02-.19,2.66-1.61,3.04-1.73.11-.03.23.11.32.21.04-.07.09-.14.15-.2.12-.1,2.48,1.2,2.79,1.39.04.02.04.11.04.22Z"/>
        <path class="cls-27" d="M15.21,61.28c.51.33.72.64.63.94-.5.64-.69,1.48-.56,2.52l.1,6.98c-.24,1.45.67,2.43,2.73,2.93.83.75,1.2.85,2.25.92l1.88,1.27c.89.54,1.68.88,1.69-.5h.38c0,.58-.28,1.8.47,1.57l-.16.31c-.13.05-.26.24-.42.29l-.2-.05c-2.68-1.58-5.81-2.71-8.49-4.23-.27-.15-.58-.32-.78-.56-.33-.82-.45-1.57-.15-2.41-.2-3.07-.23-6.16-.1-9.25l.25-.41c.2-.14.19-.16.47-.31Z"/>
        <path class="cls-31" d="M14.27,61.28v.63s.37-.25.47-.31v12.08c-.21-.26-.34-.4-.32-.78h-.15s0,1.1,0,1.1c-.4-.6-.03-2.2-.16-2.98.09-.63.03-.84-.16-.63l-.31-.15c.1-2.92.2-5.84.3-8.77l.32-.18Z"/>
        <path class="cls-9" d="M15.84,62.22l.59-.06,5.49,2.91c.93.35,1.78.76,2.55,1.23-.26.26-.29.5-.32.85-.27,2.85.12,6.29.17,9.18-.31.27,0,.82-.38,1.11-1,.8-2.98-1.36-3.87-1.66-.41-.14-.7.12-.93,0s-.75-.65-1.18-.87c-.95-.49-2.27-.73-2.81-1.74-.34-.63-.08-.85-.08-1.47-.02-2.59-.26-5.98,0-8.48.05-.48.13-1.13.78-1.02Z"/>
        <path class="cls-3" d="M27.76,64.57c-.18.03-3.16,1.59-3.29,1.73-.34.07-.57-.03-.87-.15-2.39-.91-5.3-2.77-7.75-3.93-.17-.08-.37-.53-.94-.31-.06-.28.19-.39.31-.63.42-.22,3.17-1.59,3.36-1.57.98.29,5.17,2.88,5.8,2.83.38-.03,2.64-1.59,2.99-1.57.54.03-.04,3.13.39,3.6Z"/>
      </g>
      <g>
        <path class="cls-9" d="M24.62,49.67c.1.23.05.54-.17.91,0,3.66.04,7.31.16,10.97-.22.25-.48.37-.77.2-2.78-.89-5.8-3.23-8.62-4.23-.87-.74-1.32-1.58-.63-3.13-.22-3.03-.18-6.08.16-9.1.35-.29.84-.24,1.45.14,2.79,1.54,5.6,2.96,8.43,4.25Z"/>
        <path class="cls-38" d="M28.07,47.79l3.29,1.8c-.64.74-3.64,1.53-3.89,2.39l-.11,8.36c-.11.22-3.01,1.6-3.29,1.57-.14-.02-.21-.15-.25-.16.55.02.43.1.47-.38.27-3.43-.6-7.52-.17-10.84.04-.3.25-.66.48-.85-.12-.21-.09-.38.13-.46l1.89-.85c.48-.45.96-.65,1.42-.57Z"/>
        <path class="cls-3" d="M14.74,44.97c.38-.25,3.73-1.88,4-1.9.23-.01.46.04.66.13l4.84,2.39c.42.04,2.25-1.23,2.88-1.35.2-.04.48,0,.48.17v2.67c0,.45-.16.52.47.71l-1.27.85c-.57.29-1.76.69-2.18,1.04-.29.12-.43.14-.73.04-1.92-.65-4.5-2.36-6.42-3.31-.84-.41-1.82-.96-2.72-1.12-.15,0-.15-.1,0-.31Z"/>
        <path class="cls-4" d="M14.74,45.28c0,3.79,0,7.59,0,11.38l.48.85-.94-.63c-.21.27.44.79.63.94h-.16c-1.22-.13-.33-2.96-.63-3.29.37.26.03,1.13.16,1.41h.16s0-2.35,0-2.35c-.6-.07.04.7-.94.47.55-.17.57-.49.62-1.02.23-2.29-.05-5.08,0-7.45.46.08.2-.35.63-.63v.31Z"/>
      </g>
      <g>
        <path class="cls-43" d="M15.21,78.21c1.18-.63,2.45-1.09,3.56-1.86.4-.06,4.58,2.61,5.48,2.64.57.02,3.04-1.7,3.36-1.41-.27.56-.01.96,0,1.48.01.33-.07,1.89,0,1.97.03.04.23-.03.31,0,.67.43.36.61-.31.63.02.12.04.29-.04.34-.58.36-2.17,1.16-2.8,1.41l-.3-.18c-.39.33-.89.28-1.48-.17l-4.69-2.45-.41-.52c-.81-.35-1.61-.69-2.41-1.02-.81.35-.84-.51-.26-.86Z"/>
        <path class="cls-28" d="M15.21,78.21l-.31.63.66.04,2.32,1.21-.25.25c-.74-.2-1.45-.46-2.13-.77-.1,3.38-.09,6.93-.02,10.35,2.63,1.63,5.49,3.41,8.49,4.32l.19.44c.23-.15.3-.07.16.16-.14.2.34.72-.63.31-2.58-1.22-6.07-2.74-8.45-4.18-.19-.11-.34-.19-.49-.37-.18-1.02-.23-2.06-.14-3.13l-.17-.3c.02-2.83.02-5.65,0-8.45l.31-.19c.07-.32.32-.23.47-.31Z"/>
        <path class="cls-4" d="M14.74,77.9c-.45.32-.83.71,0,.63v12.08c-.69-.85-.07-2.36-.3-3.21-.05-.19-.38-.04-.48-.09-.06-.03.16-1.13.16-1.33.04-1.72.04-3.47,0-5.19-.01-.69-.46-2.22.07-2.74.22-.21.45-.1.55-.15Z"/>
        <path class="cls-9" d="M17.88,80.1c2,.81,3.8,2.06,5.77,2.93.27.12.48.28.81.2,0,3.69,0,7.45,0,11.26l-.31.19c-.48-.29-1.43-.44-1.92-.67-1.19-.57-2.64-1.34-3.84-1.96-.98-.52-1.91-1.17-2.92-1.62l-.35-.44v-10.37c.29-.85,1.24.04,1.71.2.34.12.75.16,1.05.28Z"/>
        <path class="cls-34" d="M27.6,81.66c.06,0,1,.19,1.11.22.31.1.94.69,1.4.79-.08.35-.47.43-.61.64s-.15.64-.19.68c-.16.13-1.03-.27-1.8.79-1.01,1.39-.4,5.28-.54,7.15-.06.8-.1,1.57-.8,2.02-.25.16-1.81.79-1.87.88-.1,0-.13-.14-.16-.16v-11.06c-.03-.24.18-.28.31-.39.25-.2,2.96-1.57,3.14-1.57Z"/>
      </g>
      <g>
        <path class="cls-3" d="M71.82,86.06c.52.22.42.78-.16.63l-.33.4c-2.75,1.35-5.45,2.72-8.1,4.13l-.35-.14c-.07.1-.19.25-.27.22-.48-.2-3.95-1.83-4.06-2.03-.07-.12-.1-.24-.06-.38.54-.33,2.76-1.37,2.98-1.65.18-.22.18-.44.16-.71.48-.08.8.44,1.25.25l5.13-2.57c.21-.03,3.23,1.62,3.81,1.85Z"/>
        <path class="cls-40" d="M71.82,86.06c.5.19.52-.16.63.86.25,2.44.25,7.99,0,10.43-.08.8-.19,1-.86,1.42-1.59.99-7.04,3.8-8.71,4.23v-.16l.16-.44,8.51-4.49c.11-3.44.16-6.97.16-10.58-.19-.23-.2-.45-.04-.65.14-.23.38-.38.16-.63Z"/>
        <path class="cls-38" d="M71.67,86.68c.72.78.29,1.51.3,2.27.01.82,0,1.55,0,2.35,0,2.26.11,4.56-.11,6.79l-8.98,4.74c-.06-3.49-.45-7.59-.16-11.07.02-.24,0-.49.16-.69.05-.07,1.22-.73,1.43-.84,2.39-1.27,4.95-2.31,7.35-3.55Z"/>
      </g>
      <g>
        <path class="cls-17" d="M95.19,37.44c.14-.12.82-.6.63-.78-.49.33-1.04.53-1.57.78-.29-.32-.05-.63.72-.91.13-3.53.13-7.08-.01-10.65l.24-.83c-.31-.13-.31-.29,0-.47.46.22.28.29.32.31.41.29.35-.37,0-.62.08.04.3-.02.4.15v12.71s-.71.31-.71.31Z"/>
        <path class="cls-43" d="M95.19,24.58c.19.17,0,.4,0,.47l-.13.35c-2.64,1.13-5.28,2.4-7.91,3.8l-.58.09-1.26.31c-2.88-1.49-5.76-2.95-8.66-4.39-.43,0-.52-.51-.12-.63,1.81-.96,3.65-1.92,5.49-2.82.07-.03.28,0,.46-.08.54-.26,3.17-1.84,3.5-1.78,3.05,1.6,6.11,3.19,9.21,4.68Z"/>
        <path class="cls-14" d="M76.53,24.58c-.33.5-.04.22.22.33,2.92,1.3,5.76,3.01,8.65,4.38h1.17c.18.4-.14.6-.47.3-.26.28-.56.54-.89.78-.21,2.57-.23,5.15-.05,7.74-.33,1.44-.12,2.25.62,2.44l.16.32c.51.04.35.37,0,.63-.16,0-.32-.01-.47,0-.71-.09-1.17-.37-1.4-.83l-.04-10.07c.41-.17.22-.57-.12-.7-.32-.18-.62-.36-.91-.58l-6.62-3.26c-.21-.18-.23-1.12-.17-1.39.05-.19.25-.06.32-.09Z"/>
        <path class="cls-38" d="M95.19,25.05c.41,3.74.03,7.59.15,11.37-.07.62-.88.45-1.09,1.02-2.79,1.32-5.52,2.76-8.31,4.08v-.63c-.08-.23-.16-.46-.21-.69s-.1-.46-.11-.69c-.05-3.2-.09-6.45.03-9.61l.44-.29c.18-.1.34-.24.47-.31,2.23-1.27,4.62-2.5,6.97-3.61.49-.23,1.12-.53,1.65-.62Z"/>
        <path class="cls-16" d="M86.09,29.6c-.18.26-.15.56-.16.85-.1,3.46,0,6.97,0,10.44-1.64,0-1.09-1.47-1.09-2.58-.01-2.23-.29-5.63-.01-7.7.13-.98.8-.75,1.26-1.01Z"/>
      </g>
      <g>
        <path class="cls-22" d="M95.19,37.44c-.28.23-1.03.6-1.06.66-.07.12-.08,2.03-.01,2.22.05.13.71.46.92.57.2.32.26.34-.16.31l-.17.29c-1.17-.59-2.36-1.11-3.59-1.56l-5.02,2.5c-.49.03-.96-.12-1.42-.46.17.62-.22,1.54-.63.79.49-.7-.23-.39-.31-.47-.53-.01-.47-1.46,0-1.57l.22-.02c.35.44.86.71,1.51.8.16-.38.32-.38.47,0,.2-.18.39-.36.61-.52s.42-.31.65-.43c1.83-.94,3.68-1.86,5.53-2.74.23-.11.48-.18.74-.24s.52-.11.79-.14c.31-.24.64-.44,1-.6.83-.97.86.32-.06.6Z"/>
        <path class="cls-41" d="M93.46,39.95c-.05.05-1.23-.54-1.31-.61-.43-.38.86-.49,1.08-.95.43.37.18,1.05.23,1.56Z"/>
      </g>
      <g>
        <path class="cls-43" d="M4.55,36.81c.49-.43,1.16-.34,1.99.28,1.25.75,2.55,1.4,3.89,1.95l3.35-1.63.34.19c.09.01.16.03.16.05.03.28.17,2.5.15,2.63l-.31.22c.28-.34.96.26.94.55.05.08.14.34.13.37-.09.2-3.54,1.92-3.95,2.05-.14.05-.29-.02-.42-.08l-.48.32c-.73.12-7.12-3.23-8.26-3.85l-.51-.55c-.29.33-.5.17-.63-.47.98-.91,2.63-1.15,3.61-2.04Z"/>
        <path class="cls-27" d="M1.57,39.32c.11.09.18.21.16.35-.5,2.7-.49,7.13-.17,9.9.09.78.69,1.21,1.33,1.59,2.42.99,4.74,2.2,6.96,3.61.19-.34.41-.47.66-.39.45.23.54.92.16,1.25-.13.37-.47.39-1,.05-1.97-.95-3.84-1.96-5.59-3.03-1.07-.72-2.28-1.04-3.3-1.84l.16-11.97c.16.12.48.41.63.47Z"/>
        <path class="cls-23" d="M10.67,38.54c1.04-.34,2.04-1.06,2.98-1.41.15-.06.73-.22.78-.16.1.97-.26,2.45.31,3.29.37-.16.94.2.94.63.65.48-.19.64-.47.16-.05.13-.1.13-.16,0-.18-.1-.94-.41-.94-.55v-2.9l-3.69,1.74c-1.64-.52-3.39-1.9-4.95-2.44-.32-.11-.6-.12-.93-.09.69-.63.22-.54-.31-.94.34-.07.54.08.81.2,1.66.76,3.32,1.77,4.96,2.58.32.19.5-.07.66-.12Z"/>
        <path class="cls-18" d="M15.21,41.05l.17.21c.66-.03,1.44.3,1.87.89.34.18.97.33.71.63-.47.55-3.66,1.55-3.92,2.19-.05.21.08.42.07.63l.31.53c.13,1.98.23,5.01,0,6.94-.05.4-.46,1.02-.94.99l-2.82,1.57c-.08-.42-.14-.82-.16-1.25l-.33-.5c-.2-3.23-.24-6.43-.13-9.6.02-.61.22-.76.78-.88.66-.59,2.97-1.49,3.91-1.98.21-.11.28-.35.32-.38.02-.01.11,0,.16,0Z"/>
        <path class="cls-11" d="M17.57,41.83h-.47s.16.31.16.31c-.47-.25-1.07-.51-1.57-.71-.23-.1-.56.06-.47-.39.24.02.54.45.47-.16.64.3,1.28.64,1.88.94Z"/>
        <path class="cls-28" d="M10.82,43.4c-.06.05-.37.44-.38.47-.26.68-.12,5.11-.09,6.2.03,1.4.11,2.98.16,4.31-.73,1.31-.81.5-1.36.19-1.18-.65-2.45-1.28-3.61-1.88-1.39-.72-4.12-1.32-4.29-3.09-.22-2.42-.18-6.82,0-9.27.03-.4.1-.68.32-1.01,2.65,1.06,5.02,2.63,7.55,3.66.55.22,1.09.51,1.7.42Z"/>
      </g>
      <g>
        <path class="cls-3" d="M14.12,54.53l.12.37c.04.62.09,1.24.16,1.87-.5.29.02.79.35,1.05.57.41.02.63-.49.7-1.09.49-2.2,1.01-3.23,1.62l-.36-.12c-.44.36-.99.31-1.63-.13-1.84-1-3.7-1.96-5.58-2.87l-.31-.45c-.74-.25-1.46-.55-2.16-.87l-.03-.38c1.1-.72,2.31-1.23,3.45-1.88l.62-.11,5.31,2.65c1.15-.58,2.36-1.11,3.62-1.59l.18.15Z"/>
        <path class="cls-27" d="M.94,55.32l2.2,1.25c-.29.44-.83.39-1.61-.15l-.28.08.31.14v10.18l-.31.19.3-.06c2.68,1.46,5.41,2.82,8.21,4.07.31-.16.56-.16.74,0,.53.12.67.85.16,1.1.26.28-.17.47-.48.34-2.36-1.14-4.65-2.35-6.89-3.63-.43-.26-2.51-1.27-2.51-1.49v-10.51c0-.37-.35-1,.16-1.49Z"/>
        <path class="cls-22" d="M10.67,55.63l.04-.38c.09-.1,2.29-1.37,2.43-1.35s.25.06.35.17l.45-.11c.2-.56.37-.68.49-.36.28.46.25,1.82,0,2.35-.26.24-.32-.1-.2-1.01l-.12-.4-3.83,1.73c-1.94-.96-3.83-2.18-5.89-2.83.13-.07.5-.18.47-.23-.3-.14-.55-.39-.78-.55.28.03.51.14.76.25,1.57.72,3.69,2.14,5.2,2.65.21.07.41.09.63.07Z"/>
        <path class="cls-38" d="M14.27,61.28l-.31,9.1c-.75.5-2.45,1.38-3.29,1.73.09-.38-.13-.76-.16-1.1l-.32-.25.17-1.7c-.44-2.9-.51-5.88-.24-8.95l.55-.07c.64-.53,2.61-1.36,3.47-1.79.27-.13.7.03.61-.41h.16c.06.05.09.16.26.28.35.23,2.51.95,2.4,1.37l-3.29,1.81Z"/>
        <path class="cls-9" d="M3.14,56.57c2.2.76,4.5,2.45,6.65,3.3.3.12.53.21.87.15-.14.11-.34.15-.32.39.08,2.3-.07,4.61,0,6.91.02.58.31,1.19.32,1.72,0,.59-.21,1.23-.16,1.96-.94.84-1.91-.19-2.79-.58-1.4-.63-2.5-1.24-3.84-1.96-.36-.19-2.62-1.06-2.62-1.46v-10.51c0-.85.91-.04,1.21.05.23.07.54-.01.67.03Z"/>
      </g>
    </g>
  </g>
</svg>