<?xml version="1.0" encoding="UTF-8"?>
<svg id="Layer_2" data-name="Layer 2" xmlns="http://www.w3.org/2000/svg" viewBox="0 0 450.69 101.81">
  <defs>
    <style>
      .cls-1 {
        font-size: 84.77px;
      }

      .cls-1, .cls-2 {
        fill: #fff;
      }

      .cls-3 {
        font-family: ProximaNova-Light, 'Proxima Nova';
        font-weight: 300;
      }

      .cls-3, .cls-4 {
        letter-spacing: .04em;
      }

      .cls-5 {
        letter-spacing: .04em;
      }

      .cls-5, .cls-4, .cls-6 {
        font-family: ProximaNova-Bold, 'Proxima Nova';
        font-weight: 700;
      }

      .cls-6 {
        letter-spacing: .03em;
      }
    </style>
  </defs>
  <g id="Layer_1-2" data-name="Layer 1">
    <g>
      <circle class="cls-2" cx="10.16" cy="25.2" r="2.8"/>
      <circle class="cls-2" cx="2.8" cy="42.71" r="2.8"/>
      <circle class="cls-2" cx="27.66" cy="67.57" r="2.8"/>
      <circle class="cls-2" cx="27.66" cy="17.84" r="2.8"/>
      <circle class="cls-2" cx="10.16" cy="60.22" r="2.8"/>
      <circle class="cls-2" cx="45.17" cy="60.22" r="2.8"/>
      <circle class="cls-2" cx="52.53" cy="42.71" r="2.8"/>
      <circle class="cls-2" cx="45.17" cy="25.2" r="2.8"/>
      <circle class="cls-2" cx="10.51" cy="42.71" r="2.1"/>
      <circle class="cls-2" cx="15.76" cy="30.8" r="2.1"/>
      <circle class="cls-2" cx="39.57" cy="30.8" r="2.1"/>
      <circle class="cls-2" cx="39.57" cy="54.61" r="2.1"/>
      <circle class="cls-2" cx="15.76" cy="54.61" r="2.1"/>
      <circle class="cls-2" cx="44.82" cy="42.71" r="2.1"/>
      <circle class="cls-2" cx="27.66" cy="25.55" r="2.1"/>
      <circle class="cls-2" cx="27.66" cy="59.87" r="2.1"/>
      <circle class="cls-2" cx="7.7" cy="50.76" r="1.4"/>
      <circle class="cls-2" cx="35.72" cy="62.67" r="1.4"/>
      <circle class="cls-2" cx="47.62" cy="51.11" r="1.4"/>
      <circle class="cls-2" cx="19.61" cy="22.75" r="1.4"/>
      <circle class="cls-2" cx="8.05" cy="34.3" r="1.4"/>
      <circle class="cls-2" cx="19.26" cy="62.67" r="1.4"/>
      <circle class="cls-2" cx="47.62" cy="34.65" r="1.4"/>
      <circle class="cls-2" cx="36.07" cy="23.1" r="1.4"/>
      <circle class="cls-2" cx="20.31" cy="35.35" r="1.4"/>
      <circle class="cls-2" cx="27.66" cy="52.86" r="1.4"/>
      <circle class="cls-2" cx="20.31" cy="50.06" r="1.4"/>
      <circle class="cls-2" cx="37.82" cy="42.71" r="1.4"/>
      <circle class="cls-2" cx="34.84" cy="35.53" r="1.23"/>
      <circle class="cls-2" cx="34.84" cy="49.89" r="1.23"/>
      <ellipse class="cls-2" cx="27.66" cy="32.38" rx="1.4" ry="1.23"/>
      <circle class="cls-2" cx="17.33" cy="42.53" r="1.23"/>
      <circle class="cls-2" cx="41.32" cy="37.1" r="1.05"/>
      <circle class="cls-2" cx="14.01" cy="37.1" r="1.05"/>
      <circle class="cls-2" cx="33.27" cy="29.05" r="1.05"/>
      <circle class="cls-2" cx="33.27" cy="56.36" r="1.05"/>
      <circle class="cls-2" cx="22.06" cy="56.36" r="1.05"/>
      <circle class="cls-2" cx="22.06" cy="29.05" r="1.05"/>
      <circle class="cls-2" cx="14.01" cy="48.31" r="1.05"/>
      <circle class="cls-2" cx="41.32" cy="48.31" r="1.05"/>
      <circle class="cls-2" cx="32.04" cy="42.53" r=".88"/>
      <circle class="cls-2" cx="30.64" cy="45.68" r=".88"/>
      <circle class="cls-2" cx="30.64" cy="39.73" r=".88"/>
      <circle class="cls-2" cx="24.69" cy="39.73" r=".88"/>
      <circle class="cls-2" cx="27.49" cy="38.33" r=".88"/>
      <circle class="cls-2" cx="27.49" cy="47.08" r=".88"/>
      <circle class="cls-2" cx="23.29" cy="42.53" r=".88"/>
      <circle class="cls-2" cx="24.69" cy="45.68" r=".88"/>
      <circle class="cls-2" cx="31.17" cy="50.76" r=".7"/>
      <path class="cls-2" d="M20,45.55c.39.63-.26,1.59-.95,1.04-.9-.73.55-1.68.95-1.04Z"/>
      <circle class="cls-2" cx="35.72" cy="46.21" r=".7"/>
      <path class="cls-2" d="M24.72,51.43c-.45.29-1.6-.27-1.04-.95.73-.89,1.67.54,1.04.95Z"/>
      <path class="cls-2" d="M20,38.73c.54.33-.28,1.88-1.04.95-.56-.68.41-1.34,1.04-.95Z"/>
      <circle class="cls-2" cx="31.17" cy="34.65" r=".7"/>
      <circle class="cls-2" cx="24.51" cy="34.65" r=".7"/>
      <circle class="cls-2" cx="35.72" cy="39.2" r=".7"/>
    </g>
    <text class="cls-1" transform="translate(66.86 70.61)"><tspan class="cls-4" x="0" y="0">B</tspan><tspan class="cls-6" x="59.59" y="0">A</tspan><tspan class="cls-5" x="120.37" y="0">SE</tspan><tspan class="cls-3" x="227.44" y="0">LAB</tspan></text>
  </g>
</svg>